<?xml version="1.0" encoding="utf-8"?>
<!-- Generator: Adobe Illustrator 21.0.0, SVG Export Plug-In . SVG Version: 6.00 Build 0)  -->
<svg version="1.1" id="Layer_1" xmlns="http://www.w3.org/2000/svg" xmlns:xlink="http://www.w3.org/1999/xlink" x="0px" y="0px"
	 width="360px" height="250px" viewBox="0 0 360 250" style="enable-background:new 0 0 360 250;" xml:space="preserve">
<style type="text/css">
	.st0{fill:#4C4C4C;}
</style>
<g>
	<g>
		<path d="M85.7,22.9c1.7,0,2.3-0.3,2.9-1.1c0.3-0.2,1.2-0.2,1.3,0.1c-0.8,1.6-2.1,5.1-2.5,7.1c-0.3,0.4-1.4,0.4-1.6,0
			c0.1-1.5,0.2-3.1-0.4-3.5c-0.8-0.6-1.9-0.7-2.9-0.7h-1.8c-1.2,0-1.3,0-1.6,1.1l-5.5,18c-1,3.3-1.1,4.1,1,4.4l1.5,0.2
			c0.2,0.2,0.1,1.2-0.2,1.4c-2.6-0.1-4.6-0.1-6.5-0.1c-2,0-3.8,0-6.2,0.1c-0.4-0.2-0.4-1.3,0.1-1.4l1.6-0.2c1.8-0.2,2.1-0.6,3.3-4.4
			l5.7-18c0.3-1,0.3-1.1-1.1-1.1h-1.7c-1.1,0-2.3,0.1-3.4,0.9c-0.8,0.7-1.8,1.6-2.9,3.4c-0.4,0.2-1.5,0-1.5-0.5
			c1.3-2.6,2.4-4.9,3.1-6.8c0.2-0.2,0.8-0.2,1.1,0c0,0.8,0.4,1.1,3.2,1.1H85.7z"/>
		<path d="M99.3,36.9c-2.3,0-2.4,0.1-2.9,1.4L94.6,44c-1.1,3.3-1.1,4.2,1,4.4l1.3,0.2c0.2,0.2,0.2,1.2-0.2,1.4
			c-2.4-0.1-4.5-0.1-6.5-0.1s-3.8,0-5.6,0.1c-0.4-0.2-0.4-1.3,0.2-1.4l1-0.2c1.8-0.3,2.1-0.6,3.3-4.4l4.8-15.2c1-3.3,1.1-4.1-1-4.4
			l-1.3-0.2c-0.4-0.4-0.2-1.2,0.3-1.4c2.3,0.1,4.3,0.1,6.3,0.1c1.9,0,3.7,0,5.7-0.1c0.4,0.2,0.3,1.3-0.2,1.4l-1.2,0.2
			c-1.6,0.2-1.9,0.6-3.1,4.4L98,33.4c-0.4,1.3-0.4,1.3,1.8,1.3h6.6c2.2,0,2.4-0.1,2.8-1.5l1.4-4.5c1.1-3.3,1.1-4.1-1-4.4l-1.1-0.2
			c-0.3-0.2-0.2-1.2,0.4-1.4c2.1,0.1,4.2,0.1,6,0.1c2,0,3.8,0,5.8-0.1c0.3,0.2,0.3,1.3-0.2,1.4l-1.2,0.2c-1.7,0.3-2,0.6-3.2,4.4
			L111.4,44c-1,3.3-1.1,4,1,4.4l1.3,0.2c0.2,0.2,0.1,1.2-0.3,1.4c-2.3-0.1-4.4-0.1-6.3-0.1c-2,0-3.8,0-5.7,0.1
			c-0.4-0.2-0.4-1.3,0.2-1.4l1-0.2c1.8-0.3,2.1-0.6,3.3-4.4l1.8-6c0.3-1,0.3-1.1-1.9-1.1H99.3z"/>
		<path d="M127.2,40.6c-1.2,0-1.3,0-1.8,0.8l-2.7,4.3c-0.7,1.2-0.8,1.6-0.8,1.8c0,0.3,0.6,0.6,1.3,0.7l1.5,0.2
			c0.4,0.3,0.3,1.3-0.2,1.5c-2-0.1-3.7-0.1-5.5-0.1c-1.4,0-2.8,0-3.9,0.1c-0.6-0.2-0.6-1.2-0.2-1.5l1-0.2c2-0.3,2.5-0.7,4.6-3.7
			c3.6-5.4,7.3-10.8,11-16.2c1.3-1.9,2.4-3.7,2.6-4.4c2.3-0.2,4.2-1.8,4.2-1.8h0.1c0.4,0,0.7,0.2,0.7,0.7c0,7.2-0.3,14.5-0.3,21.7
			c0,2.9,0,3.5,2,3.8l1,0.1c0.3,0.2,0.2,1.3-0.1,1.4c-1.5-0.1-3.7-0.1-5.8-0.1c-2.3,0-4.1,0-5.4,0.1c-0.5-0.2-0.4-1.1-0.2-1.4
			l0.9-0.1c1.9-0.2,2.1-0.8,2.1-1.8l0.2-5.2c0-0.8,0-0.9-1.3-0.9H127.2z M132.5,38.4c1,0,1-0.1,1.1-1.1l0.2-5c0-1.2,0.1-3.5,0.2-4.4
			H134l-2.6,4l-3.5,5.6c-0.5,0.7-0.4,0.9,0.8,0.9H132.5z"/>
		<path d="M153,28.8c1-3.3,1.1-4.1-1-4.4l-1.1-0.2c-0.4-0.2-0.2-1.2,0.3-1.4c2.1,0.1,3.6,0.1,5.1,0.1c1,0,2.4,0,3.3-0.1
			c-0.2,1.5,1.3,4.8,3.2,9.1l1.9,4.2c1.4,3.2,2.1,4.6,2.6,5.5c0.3-0.4,0.7-1.6,0.9-2.5l1.8-5.9c0.8-2.7,1.4-5.1,1.6-5.8
			c0.4-2,0.4-2.7-1.7-2.9l-1.2-0.2c-0.4-0.4-0.2-1.1,0.3-1.4c2.2,0.1,3.5,0.1,5.1,0.1c1.8,0,2.9,0,4.7-0.1c0.3,0.2,0.3,1.1-0.1,1.4
			l-1,0.2c-1.8,0.4-2.5,0.9-3.2,2.9c-0.3,0.8-1.1,3.2-2,5.9l-3,9.7c-0.9,3.1-1.5,5.5-1.9,6.8c-0.3,0.3-1.5,0.4-2.6,0.4
			c-0.1,0-1.2-3.1-2.3-5.7l-4.4-9.9c-0.8-1.8-2.1-4.9-2.7-6.1c-0.2,0.5-0.4,1-1,3.2l-2.4,8c-0.8,2.7-1.5,5.1-1.6,5.8
			c-0.3,2-0.4,2.6,1.7,2.9l1.2,0.2c0.2,0.4,0.2,1.1-0.2,1.4c-2.2-0.1-3.6-0.1-5.1-0.1c-1.7,0-2.9,0-4.7,0.1
			c-0.4-0.2-0.4-1.1,0.1-1.4l0.9-0.2c1.9-0.4,2.5-0.9,3.2-2.9c0.3-0.8,1.1-3.2,1.9-5.9L153,28.8z"/>
		<path d="M183.2,28.8c1-3.3,1.1-4-1-4.4l-1.1-0.2c-0.4-0.2-0.3-1.2,0.2-1.4c2.2,0.1,4.3,0.1,6.2,0.1c2,0,3.8,0,5.8-0.1
			c0.4,0.2,0.4,1.3-0.2,1.4l-1.2,0.2c-1.8,0.2-2.1,0.6-3.3,4.4l-1.7,5.3c-0.2,0.8-0.2,1.2,0.2,1.2c1.2,0,2.9-1.1,4.4-2.4l5.3-4.8
			c0.3-0.3,2.2-2.1,2.5-2.5c0.3-0.3,0.4-0.6,0.4-0.7c0-0.2-0.2-0.3-0.7-0.4l-1.5-0.2c-0.3-0.3-0.4-1.1,0.2-1.4
			c2.3,0.1,3.7,0.1,5.4,0.1c2.1,0,3.8,0,5-0.1c0.5,0.2,0.5,1.1,0.1,1.4c-1.1,0.2-2.2,0.4-3.7,0.9c-1.8,0.7-3.4,1.8-7.3,5.1l-2.8,2.4
			c-0.7,0.6-1.5,1.4-1.5,1.8c0,0.2,0.2,0.8,0.4,1.5c1.4,3.7,3,7.3,4.6,10.8c0.5,1.2,1.1,1.5,2.1,1.7l1.1,0.2
			c0.3,0.3,0.2,1.2-0.1,1.4c-1.9-0.1-3.8-0.1-5.7-0.1c-1.8,0-3.5,0-5.4,0.1c-0.5-0.2-0.5-1.2-0.1-1.4l1.3-0.2
			c0.9-0.2,1.1-0.6,0.9-1.1c-0.2-0.8-1.2-3.1-1.5-3.8l-1.3-3.2c-1-2.4-1.3-3.2-2.2-3.2c-0.9,0-1.2,0.9-1.8,2.8l-1.3,4.3
			c-1.1,3.3-1.1,4.1,1,4.4l1.1,0.2c0.3,0.2,0.2,1.2-0.2,1.4c-2.2-0.1-4.3-0.1-6.2-0.1s-3.8,0-5.8,0.1c-0.4-0.2-0.4-1.3,0.2-1.4
			l1.2-0.2c1.8-0.3,2.1-0.6,3.3-4.4L183.2,28.8z"/>
		<path d="M229.3,48.5c0.2,0.2,0.1,1.2-0.2,1.4c-2.6-0.1-4.6-0.1-6.6-0.1c-1.9,0-3.7,0-6.2,0.1c-0.4-0.2-0.4-1.3,0.1-1.4l1.6-0.2
			c1.8-0.2,2-0.5,3.3-4.3l0.6-1.8c0.7-2.2,0.7-3.3,0.4-5.1c-0.5-3.1-1.1-6.1-1.7-9.3c-0.4-2.3-0.6-3.3-2.2-3.5l-0.9-0.1
			c-0.3-0.4-0.2-1.3,0.3-1.4c2.2,0.1,3.8,0.1,5.5,0.1c1.9,0,3.5,0,5.3-0.1c0.5,0.2,0.4,1.2,0,1.4l-1.5,0.3c-1,0.2-1.3,0.6-1.3,0.9
			c0,0.3,0,0.9,0.2,2.3c0.4,2.9,1.1,6.7,1.6,8.9l5.7-7.1c1.3-1.7,3.1-3.9,3.1-4.2s-0.3-0.5-0.9-0.7l-1.5-0.4
			c-0.4-0.3-0.3-1.2,0.2-1.4c2.3,0.1,3.7,0.1,5.1,0.1c1.3,0,2.9,0,3.9-0.1c0.4,0.2,0.4,1.2,0,1.4l-1,0.2c-1.5,0.2-2,0.6-3.8,2.5
			c-2.8,2.9-5.3,6-7.7,8.9c-1.9,2.3-2.3,3.2-2.9,5.2l-0.9,3c-1.1,3.3-1.1,4.1,1,4.4L229.3,48.5z"/>
		<path d="M245.3,25.9c3.4-2.8,7.1-3.7,10.1-3.7c5,0,11.2,2.7,11.2,11.5c0,4.3-2,9-5,12.1c-2.1,2.1-6.2,4.6-11.2,4.6
			c-9.3,0-11.6-6.4-11.6-10.9C238.8,34.5,241.3,29.2,245.3,25.9z M251.5,25.9c-3.3,2.6-6.9,9.2-6.9,15.9c0,3.9,1.8,6.8,5.2,6.8
			c1.6,0,3.7-0.7,5.6-2.9c3.7-4.3,5.3-9.8,5.3-14.8c0-4.8-2.1-6.7-4.9-6.7C254.3,24.1,252.8,24.9,251.5,25.9z"/>
		<path d="M282.7,24.4c-1.7,0.3-2,0.6-3.2,4.4l-2.9,9.4c-0.4,1.2-0.8,3.2-0.9,4.5c0,3.5,1.6,5.6,5.3,5.6c4.9,0,7.2-4.5,8.7-9.4
			l1.8-5.8c0.8-2.7,1.4-5.1,1.6-5.8c0.4-2,0.4-2.6-1.7-2.9l-1.2-0.2c-0.2-0.4-0.2-1.1,0.2-1.4c2.2,0.1,3.6,0.1,5.1,0.1
			c1.8,0,2.9,0,4.7-0.1c0.4,0.2,0.4,1.1-0.1,1.4l-1,0.2c-1.8,0.4-2.5,0.9-3.2,2.9c-0.3,0.8-1.2,3.2-2,5.9l-1.9,6
			c-1.1,3.4-2.2,6.4-4.7,8.6c-1.9,1.7-5.1,2.7-8.2,2.7c-5.1,0-9.1-1.8-9.1-7.2c0-1.1,0.3-2.9,0.8-4.3l3.1-10.2c1-3.3,1.1-4.1-1-4.4
			l-1-0.2c-0.4-0.2-0.2-1.1,0.4-1.4c2,0.1,4,0.1,5.9,0.1c2,0,3.8,0,5.7-0.1c0.4,0.2,0.3,1.2-0.2,1.4L282.7,24.4z"/>
	</g>
	<g>
		<g>
			<path d="M68.3,159.5c4.5,2.3,8.1,5.2,8.1,10.7c0,6.5-5.6,11-14.5,11c-0.2,0-0.3,0-0.5-0.1l-1.7,5.4c-0.7,0.6-2.2,0.6-2.8,0
				l1.8-5.6c-4.4-0.7-7.7-2.7-8.3-4.5c-0.4-1.8-0.2-5.6,0.7-8.3c0.4-0.5,1.4-0.5,1.9,0c0.5,5.1,3.2,8.7,6.7,9.9l4.1-12.8
				c-3.6-2.3-7-4.3-7-9.2c0-6.6,5.5-10.8,13.5-10.8l1.4-4.5c0.5-0.6,2.1-0.6,2.8,0l-1.5,4.7c2.4,0.3,4.5,1.2,6.8,2
				c0.1,2-0.1,4.9-1.1,8.3c-0.3,0.3-1.4,0.3-1.9,0c-0.1-4.1-1.9-6.6-4.7-7.4L68.3,159.5z M62.2,178.5c0.1,0.1,0.3,0.1,0.5,0.1
				c3.6,0,6.8-2.3,6.8-5.9c0-3.2-1.4-4.7-3.4-6L62.2,178.5z M69.3,147.8c-4.4,0.1-6.3,3.1-6.3,5.6c0,2.1,1.3,3.6,2.9,4.7L69.3,147.8
				z"/>
		</g>
		<g>
			<path d="M101.5,148.1c-1.5-0.9-1.3-4.4,0.3-5.1c6.7-1.2,13.9-2.6,20.3-4.2c6.1-1.5,13.3-4.5,13.7-4.5c1.3,0,2.2,1,2.3,2
				c-1.8,4.2-4.2,11.1-6.1,16.9l-17.7,55.8c-3.5,11.1-2.5,12.6,4.8,13.6l5.4,0.7c1.5,0.7,1,4.5-0.7,5.1c-7.3-0.3-15.5-0.4-24.5-0.4
				c-7.9,0-15,0.1-21.8,0.4c-1.6-1.3-1.2-4.2,0.4-5.1l5.1-0.7c7.9-1.2,8.9-2.5,12.4-13.6l14.6-46c2.2-6.9,2.6-8.8,2.6-10.5
				c0.1-2.2-1.6-3.4-4.7-3.7L101.5,148.1z"/>
		</g>
		<g>
			<path d="M151.8,145.6c5-4.1,10.6-5.5,15-5.5c7.4,0,16.7,4,16.7,17.1c0,6.4-3,13.4-7.5,18c-3.1,3.2-9.2,6.9-16.6,6.9
				c-13.9,0-17.3-9.6-17.3-16.2C142.1,158.3,145.8,150.5,151.8,145.6z M161,145.5c-4.9,3.9-10.2,13.7-10.2,23.7
				c0,5.8,2.7,10.1,7.8,10.1c2.4,0,5.5-1.1,8.3-4.4c5.5-6.4,8-14.6,8-22c0-7.1-3.1-10-7.3-10C165.2,142.9,162.9,144,161,145.5z"/>
			<path d="M214,141.1c3.9,0,7.3-0.1,8.3-0.2c-0.4,1-2,5.4-3,9.5c-0.3,0.7-1.9,0.7-2.4,0.2c0.2-2.2,0-3.9-0.2-4.7
				c-0.5-1.4-2.1-2.1-5-2.1h-4.5c-2.1,0-2.1,0.1-2.9,2.4l-3.5,11.1c-0.5,1.6-0.4,1.8,1.2,1.8h4.7c3.2,0,3.9-0.4,5.5-3.3l0.8-1.5
				c0.6-0.5,2.1-0.5,2.3,0.1c-0.7,1.9-1.5,4.1-2.2,6.4c-0.8,2.2-1.3,4.5-1.8,6.4c-0.5,0.5-2.1,0.6-2.3,0.1l0.1-1.5
				c0.2-2.9-0.2-3.4-3.4-3.4h-4.7c-1.5,0-1.8,0.2-2.2,1.8l-2.5,8.1c-1.5,4.9-1.6,6.2,1.5,6.6l2,0.2c0.3,0.4,0.2,1.8-0.4,2.1
				c-3.4-0.1-6.5-0.2-9.4-0.2s-5.6,0.1-8.7,0.2c-0.6-0.4-0.5-1.9,0.1-2.1l1.9-0.3c2.6-0.4,3.1-0.8,4.9-6.5l7.1-22.6
				c1.5-4.9,1.6-6.1-1.3-6.6l-1.5-0.2c-0.5-0.4-0.4-1.8,0.4-2.1c2.9,0.1,5.9,0.2,8.3,0.2H214z"/>
			<path d="M247.6,141.1c3.9,0,7.3-0.1,8.3-0.2c-0.4,1-2,5.4-3,9.5c-0.3,0.7-1.9,0.7-2.4,0.2c0.2-2.2,0-3.9-0.2-4.7
				c-0.5-1.4-2.1-2.1-5-2.1h-4.5c-2.1,0-2.1,0.1-2.9,2.4l-3.5,11.1c-0.5,1.6-0.4,1.8,1.2,1.8h4.7c3.2,0,3.9-0.4,5.5-3.3l0.8-1.5
				c0.6-0.5,2.1-0.5,2.3,0.1c-0.7,1.9-1.5,4.1-2.2,6.4c-0.8,2.2-1.3,4.5-1.8,6.4c-0.5,0.5-2.1,0.6-2.3,0.1l0.1-1.5
				c0.2-2.9-0.2-3.4-3.4-3.4h-4.7c-1.5,0-1.8,0.2-2.2,1.8l-2.5,8.1c-1.5,4.9-1.6,6.2,1.5,6.6l2,0.2c0.3,0.4,0.2,1.8-0.4,2.1
				c-3.4-0.1-6.5-0.2-9.4-0.2s-5.6,0.1-8.7,0.2c-0.6-0.4-0.5-1.9,0.1-2.1l1.9-0.3c2.6-0.4,3.1-0.8,4.9-6.5l7.1-22.6
				c1.5-4.9,1.6-6.1-1.3-6.6l-1.5-0.2c-0.5-0.4-0.4-1.8,0.4-2.1c2.9,0.1,5.9,0.2,8.3,0.2H247.6z"/>
		</g>
	</g>
	<g>
		<path d="M28.6,72.8c-0.2,0.5-0.4,1.3-0.7,2.5c-0.8,3-1.5,5.6-2.4,8.5c-0.7,2.4-1.6,3.8-2.1,4.3c-0.4,0.4-1.6,1.4-3.2,1.4
			c-1.4,0-2-0.9-2-1.3c0-0.5,0.3-1,0.6-1.2c0.2-0.2,0.5-0.1,0.6,0.1c0.6,0.7,1.4,1.1,2,1.1c0.5,0,1.1-0.2,1.7-2.3
			c1.2-4.2,2.2-8.8,3.5-13.2h-2.2c-0.3-0.2-0.2-0.8,0.2-1H27c0.7-2.4,1.4-4.5,3-6.4c1.3-1.6,2.7-2.2,4.3-2.2c1,0,2.1,0.7,2.1,1.8
			c0,0.7-0.7,1.5-1.2,1.5c-0.2,0-0.3-0.2-0.4-0.4c-0.1-1.5-0.8-2-1.5-2c-0.6,0-1.3,0.5-1.9,1.4c-1.2,1.8-1.8,3.7-2.5,6.2h3.4
			c0.2,0.3,0.1,0.7-0.3,1H28.6z"/>
		<path d="M39.8,74.8c-0.1,1.5-0.9,4-2.8,6.1c-1.7,1.7-3.1,1.8-3.8,1.8c-1.7,0-2.8-1.3-2.7-3.6c0.1-1.7,1.1-4.3,2.9-6
			c1.4-1.3,2.6-1.7,3.7-1.7C39,71.5,39.9,72.9,39.8,74.8z M35,73.6c-1.6,2.1-2.6,5.3-2.7,6.7c-0.1,0.9,0.3,1.7,1.1,1.7
			c0.6,0,1.3-0.2,2.1-1.4c1.2-1.6,2.4-5.1,2.5-6.5c0-0.8-0.1-1.8-1.1-1.8C36.4,72.3,35.7,72.5,35,73.6z"/>
		<path d="M45.6,74l-1.2,3.4h0.1c0.8-1.5,2.1-3.6,2.8-4.5c0.6-0.8,1.3-1.4,2-1.4c0.9,0,1.1,0.9,1.1,1.3c0,0.4-0.2,1.2-0.6,1.6
			c-0.3,0.4-0.8,0.4-0.9-0.1c-0.1-0.7-0.3-1-0.6-1c-0.2,0-0.5,0.3-0.9,0.8c-1.6,2.1-3.1,5.4-4.6,8.4c-0.1,0.2-0.2,0.3-0.5,0.3
			c-0.3,0-1.1-0.1-0.9-0.7c0.3-1.1,2-5.8,2.8-8.4c0.1-0.3,0-0.6-0.2-0.6c-0.7,0-1.4,0.8-1.9,1.4c-0.3,0.1-0.5-0.1-0.4-0.4
			c0.9-1.4,1.9-2.6,3.2-2.6C46.4,71.5,45.9,73.3,45.6,74z"/>
		<path d="M60.9,65.6c-0.2-0.2-0.1-0.5,0.1-0.6c1.2-0.2,2.7-0.3,4.5-0.3c2.7,0,4.3,0.5,5.3,1.3c1.1,0.9,1.5,2,1.5,3.3
			c0,1.8-1,3.2-2.3,4.1c-1.4,0.9-3.4,1.4-5,1.4c-0.2-0.1-0.2-0.4-0.1-0.6c2-0.2,5.1-1.7,5.1-5.3c0-2.3-1.5-3.4-3.6-3.4
			c-0.9,0-0.9,0.1-1.2,0.9l-3.8,12.1c-0.8,2.5-0.9,3.1,0.5,3.2l1,0.1c0.2,0.2,0.1,0.6-0.1,0.7c-1.3-0.1-2.2-0.1-3.5-0.1
			c-1.1,0-2,0-3.1,0.1c-0.2-0.1-0.2-0.5,0-0.7l0.8-0.1c1.3-0.1,1.6-0.5,2.4-3.2l3.5-11.1c0.4-1.3,0.3-1.7-0.7-1.7L60.9,65.6z"/>
		<path d="M81,74.8c-0.1,1.5-0.9,4-2.8,6.1c-1.7,1.7-3.1,1.8-3.8,1.8c-1.7,0-2.8-1.3-2.7-3.6c0.1-1.7,1.1-4.3,2.9-6
			c1.4-1.3,2.6-1.7,3.7-1.7C80.2,71.5,81.1,72.9,81,74.8z M76.1,73.6c-1.6,2.1-2.6,5.3-2.7,6.7c-0.1,0.9,0.3,1.7,1.1,1.7
			c0.6,0,1.3-0.2,2.1-1.4c1.2-1.6,2.4-5.1,2.5-6.5c0-0.8-0.1-1.8-1.1-1.8C77.6,72.3,76.9,72.5,76.1,73.6z"/>
		<path d="M84.2,80.7c-0.2,0.6-0.2,0.9,0.1,0.9c0.6,0,1.8-1.3,3.1-2.7c0.3,0,0.4,0.1,0.4,0.4c-0.7,1.3-2.4,3.6-4.6,3.6
			c-0.8,0-1-0.4-1-0.8c0-0.4,0.1-0.9,0.6-2.3L87,67c0.6-1.9,0.4-2.1,0-2.3l-0.5-0.2c-0.1-0.1-0.1-0.3,0-0.4c0.5-0.2,2.1-0.7,3.4-0.8
			l0.1,0.2c-0.3,1-0.6,1.7-1.6,4.6L84.2,80.7z"/>
		<path d="M92.3,73.7c0.1-0.3,0.1-0.5-0.1-0.5s-0.9,0.3-2.2,1.4c-0.2,0-0.4-0.2-0.3-0.5c1.5-1.7,3.5-2.7,4.4-2.7
			c0.2,0,0.3,0.2,0.4,0.3c0.2,0.2,0.2,0.4-0.2,1.2l-3.2,7.6c-0.1,0.3-0.1,0.6,0.1,0.6c0.5,0,1.9-0.9,2.8-2c0.3,0,0.4,0.2,0.4,0.5
			c-0.4,0.8-3.2,3.2-5,3.2c-0.1,0-0.3-0.1-0.4-0.2c-0.2-0.2-0.2-0.4-0.1-0.7L92.3,73.7z M95.4,67c0,0.8-0.6,1.7-1.4,1.7
			c-0.7,0-0.9-0.5-0.9-1c0-0.6,0.4-1.7,1.4-1.7C95.1,65.9,95.4,66.4,95.4,67z"/>
		<path d="M104.8,73c0,1.1-1,1.3-1.3,1.3c-0.3,0-0.5-0.2-0.5-0.5c-0.1-0.7-0.1-1.5-0.9-1.5c-0.6,0-1.4,0.6-2.3,1.8
			c-0.9,1.3-1.7,3.5-1.8,5.5c-0.1,1.3,0.5,1.7,1.2,1.7c0.9,0,1.9-0.7,2.9-1.6c0.3,0,0.4,0.2,0.3,0.5c-1,1.4-2.7,2.5-4.4,2.5
			c-1,0-2-0.8-2-2.8c0-1.7,1-4.8,3.4-6.9c1.1-1,2.3-1.6,3.5-1.6C104.2,71.5,104.8,72.2,104.8,73z"/>
		<path d="M113.6,73.1c0,2-2.7,3.4-6.5,4.5c-0.2,0.5-0.4,1.3-0.4,2.4c0,0.9,0.6,1.5,1.3,1.5c1,0,1.6-0.5,2.8-1.6
			c0.2,0,0.4,0.2,0.3,0.5c-1.6,2-3.2,2.4-4.3,2.4c-1.6,0-2.2-1.5-2.2-2.8c0-1.7,1.1-5,4-7.2c1.4-1.1,2.4-1.3,3.2-1.3
			C113,71.5,113.6,72.4,113.6,73.1z M109.4,73.6c-1,1.1-1.7,2.4-2,3.1c1.8-0.5,2.6-1,3.6-2c0.8-0.8,1-1.6,1-1.8
			c0-0.3-0.1-0.6-0.6-0.6C111,72.3,110.4,72.5,109.4,73.6z"/>
		<path d="M117,81.4c0,1.9-2.3,3.4-4,3.9c-0.2-0.1-0.3-0.3-0.2-0.5c0.9-0.4,2.5-1.3,2.5-2.8c0-0.5-0.3-0.9-0.9-1
			c-0.2-0.1-0.4-0.3-0.4-0.6c0-0.6,0.5-1,1.2-1C116.4,79.3,117,80.4,117,81.4z"/>
		<path d="M132.7,69.7c0.9-2.3,1.1-3.2,1.1-3.6c0-0.4-0.2-0.5-0.8-0.6l-1.3-0.2c-0.2-0.2-0.1-0.6,0.1-0.7c1.3,0.1,2.1,0.1,2.9,0.1
			c0.6,0,1.2,0,1.8-0.1c-0.4,1.3-0.2,2.9,0.1,5.2l0.4,3.5c0.3,2.3,0.5,3.7,0.6,4.9h0.1c1-1.3,2.1-2.6,3.1-3.9l4.3-5.5
			c2-2.6,2.5-3.7,2.6-4.2c0.5,0.1,0.9,0.1,1.7,0.1c1,0,1.9,0,2.7-0.1c0.2,0.1,0.1,0.5,0,0.7l-0.6,0.1c-0.9,0.2-1.3,0.3-1.6,0.6
			c-0.4,0.4-0.6,1.3-1.2,3.3l-2.3,8.3c-0.6,2-0.8,2.9-0.8,3.4c0,0.4,0.3,0.7,1.1,0.7l0.9,0.1c0.2,0.2,0.1,0.6-0.1,0.7
			c-1-0.1-2.2-0.1-3.4-0.1c-1.1,0-2.3,0-3.2,0.1c-0.2-0.2-0.2-0.6,0-0.7l0.7-0.1c0.5-0.1,1.2-0.2,1.5-0.5c0.3-0.3,0.9-1.7,1.4-3.4
			l2.1-7c0.4-1.4,0.8-2.6,1-3.4l-0.1,0c-0.4,0.5-1,1.4-2.5,3.3l-4.1,5.3c-1.5,2-3.1,4-4.3,6c-0.2,0.1-0.4,0-0.5-0.1
			c0-1-0.1-2.4-0.4-5.5l-0.9-9h-0.1c-0.4,1-0.8,2.1-1.2,3.2l-2,5.4c-1.3,3.5-1.6,4.5-1.6,5c0,0.3,0.1,0.5,0.8,0.6l1.2,0.2
			c0.1,0.2,0.1,0.5-0.1,0.7c-0.8-0.1-1.8-0.1-3.1-0.1c-1.1,0-2,0-2.9,0.1c-0.2-0.2-0.2-0.6,0-0.7l0.7-0.1c0.6-0.1,1.2-0.2,1.5-0.7
			c0.4-0.5,1.5-3.2,3.2-7.7L132.7,69.7z"/>
		<path d="M153.8,73.7c0.1-0.3,0.1-0.5-0.1-0.5s-0.9,0.3-2.2,1.4c-0.2,0-0.4-0.2-0.3-0.5c1.5-1.7,3.5-2.7,4.4-2.7
			c0.2,0,0.3,0.2,0.4,0.3c0.2,0.2,0.2,0.4-0.2,1.2l-3.2,7.6c-0.1,0.3-0.1,0.6,0.1,0.6c0.5,0,1.9-0.9,2.8-2c0.3,0,0.4,0.2,0.4,0.5
			c-0.4,0.8-3.2,3.2-5,3.2c-0.1,0-0.3-0.1-0.4-0.2c-0.2-0.2-0.2-0.4-0.1-0.7L153.8,73.7z M157,67c0,0.8-0.6,1.7-1.4,1.7
			c-0.7,0-0.9-0.5-0.9-1c0-0.6,0.4-1.7,1.4-1.7C156.7,65.9,157,66.4,157,67z"/>
		<path d="M159.5,80.7c-0.2,0.6-0.2,0.9,0.1,0.9c0.6,0,1.8-1.3,3.1-2.7c0.3,0,0.4,0.1,0.4,0.4c-0.7,1.3-2.4,3.6-4.6,3.6
			c-0.8,0-1-0.4-1-0.8c0-0.4,0.1-0.9,0.6-2.3l4.3-12.7c0.6-1.9,0.4-2.1,0-2.3l-0.5-0.2c-0.1-0.1-0.1-0.3,0-0.4
			c0.5-0.2,2.1-0.7,3.4-0.8l0.1,0.2c-0.3,1-0.6,1.7-1.6,4.6L159.5,80.7z"/>
		<path d="M167.6,73.7c0.1-0.3,0.1-0.5-0.1-0.5s-0.9,0.3-2.2,1.4c-0.2,0-0.4-0.2-0.3-0.5c1.5-1.7,3.5-2.7,4.4-2.7
			c0.2,0,0.3,0.2,0.4,0.3c0.2,0.2,0.2,0.4-0.2,1.2l-3.2,7.6c-0.1,0.3-0.1,0.6,0.1,0.6c0.5,0,1.9-0.9,2.8-2c0.3,0,0.4,0.2,0.4,0.5
			c-0.4,0.8-3.2,3.2-5,3.2c-0.1,0-0.3-0.1-0.4-0.2c-0.2-0.2-0.2-0.4-0.1-0.7L167.6,73.7z M170.7,67c0,0.8-0.6,1.7-1.4,1.7
			c-0.7,0-0.9-0.5-0.9-1c0-0.6,0.4-1.7,1.4-1.7C170.5,65.9,170.7,66.4,170.7,67z"/>
		<path d="M176.1,72.9l-2.5,7.3c-0.2,0.5,0,0.7,0.2,0.7c0.4,0,2.2-1.4,3.1-2.4c0.3,0,0.4,0.2,0.4,0.5c-1.5,2.2-4,3.9-5.1,3.9
			c-0.4,0-0.7-0.4-0.7-0.7c0-0.3,0.1-0.7,0.4-1.5l2.6-7.6h-2.1c-0.1-0.3,0-0.6,0.3-0.8l2.1-0.4l1.5-2.7c0.3-0.2,0.8-0.1,1,0.2
			l-0.8,2.6h2.9c0.2,0.3,0,0.8-0.3,1H176.1z"/>
		<path d="M188.3,70.8c0.5-0.2,1.2,0.1,1.3,0.4c-0.4,1-2.7,6.9-3.6,9.4c-0.2,0.5,0,0.6,0.2,0.6c0.5,0,1.2-0.5,2.8-1.8
			c0.2,0,0.4,0.1,0.4,0.3c-1.1,1.5-3,3-4.5,3c-0.6,0-0.8-0.5-0.8-0.7c0-0.2,0.1-0.4,0.3-1l0.9-2.4l-0.1,0c-1.9,2.4-4.6,4.2-5.9,4.2
			c-0.8,0-1.2-0.8-1.2-1.5c0-0.6,0.6-2.8,2.4-5.2c1.3-1.8,2.4-2.8,3.5-3.5c1-0.6,1.7-0.8,2.4-0.8c0.3,0,0.5,0.1,0.6,0.2
			c0.1,0.1,0.4,0.3,0.5,0.6L188.3,70.8z M183.6,73.9c-1.7,1.5-3.4,5-3.4,6.9c0,0.3,0.2,0.5,0.4,0.5c0.3,0,1.1-0.3,2.6-1.7
			c2-1.9,3.2-4.2,3.6-5.8c-0.2-0.5-0.6-1-1.3-1C184.9,72.9,184.4,73.2,183.6,73.9z"/>
		<path d="M195,74l-1.2,3.4h0.1c0.8-1.5,2.1-3.6,2.8-4.5c0.6-0.8,1.3-1.4,2-1.4c0.9,0,1.1,0.9,1.1,1.3c0,0.4-0.2,1.2-0.6,1.6
			c-0.3,0.4-0.8,0.4-0.9-0.1c-0.1-0.7-0.3-1-0.6-1c-0.2,0-0.5,0.3-0.9,0.8c-1.6,2.1-3.1,5.4-4.6,8.4c-0.1,0.2-0.2,0.3-0.5,0.3
			c-0.3,0-1.1-0.1-0.9-0.7c0.3-1.1,2-5.8,2.8-8.4c0.1-0.3,0-0.6-0.2-0.6c-0.7,0-1.4,0.8-1.9,1.4c-0.3,0.1-0.5-0.1-0.4-0.4
			c0.9-1.4,1.9-2.6,3.2-2.6C195.8,71.5,195.3,73.3,195,74z"/>
		<path d="M204.8,76c0,1.7,0,3.7-0.4,5.9h0.1c0.9-1.3,1.7-3,2.3-4.6c0.6-1.6,1-4.3,1-5c0.1-0.8,0.5-0.8,0.6-0.8
			c0.2,0,0.5,0.1,0.8,0.2c0.2,0.1,0.2,0.2,0.2,0.5c0,0.7-0.7,4.1-3.1,8.2c-1.3,2.2-2.3,4-4.4,6.4c-2,2.3-3.3,2.7-4.2,2.7
			c-0.9,0-1.4-0.6-1.4-1.2s0.5-1.2,1.1-1.2c0.3,0,0.5,0.2,0.7,0.4c0.1,0.1,0.3,0.5,0.8,0.5c0.3,0,0.8-0.2,1.5-0.8
			c0.7-0.6,1.8-2.3,2.4-4c0.4-1.4,0.6-3.8,0.5-6.1c-0.1-3-0.5-4-1-4c-0.5,0-1,0.9-1.6,2c-0.3,0.1-0.5-0.1-0.5-0.3
			c0.6-1.8,1.7-3.5,3.1-3.5C204.5,71.5,204.7,74.1,204.8,76z"/>
		<path d="M212.7,81.4c0,1.9-2.3,3.4-4,3.9c-0.2-0.1-0.3-0.3-0.2-0.5c0.9-0.4,2.5-1.3,2.5-2.8c0-0.5-0.3-0.9-0.9-1
			c-0.2-0.1-0.4-0.3-0.4-0.6c0-0.6,0.5-1,1.2-1C212.1,79.3,212.7,80.4,212.7,81.4z"/>
		<path d="M228.5,68.6c0.8-2.5,0.8-2.8-0.6-3.2l-0.5-0.1c-0.2-0.2-0.1-0.6,0.2-0.7c0.9,0.1,1.8,0.1,2.9,0.1h5c1.7,0,3,0,3.8-0.1
			c-0.2,0.5-0.8,2.6-1.1,3.6c-0.1,0.2-0.6,0.2-0.7,0c0.2-1.4,0.2-2.1-0.9-2.4c-0.6-0.2-1.4-0.2-2.8-0.2h-1.5c-0.8,0-0.8,0.1-1,0.9
			l-1.9,5.9c-0.2,0.6-0.1,0.7,0.4,0.7h1.8c2.5,0,3.1-0.2,3.7-1.3l0.5-0.8c0.1-0.2,0.6-0.1,0.7,0.1c-0.2,0.5-0.6,1.6-0.9,2.5
			c-0.3,1-0.6,2-0.7,2.7c-0.2,0.2-0.5,0.2-0.7,0l0-1c0-0.9-0.6-1.2-2.8-1.2h-2c-0.6,0-0.6,0.1-0.9,0.8l-1.2,3.9
			c-0.8,2.5-0.9,3.1,0.5,3.2l1,0.1c0.2,0.2,0.1,0.6-0.1,0.7c-1.6-0.1-2.5-0.1-3.6-0.1c-1.1,0-2,0-3,0.1c-0.2-0.1-0.2-0.5,0-0.7
			l0.8-0.1c1.3-0.1,1.6-0.5,2.4-3.2L228.5,68.6z"/>
		<path d="M240.7,73.7c0.1-0.3,0.1-0.5-0.1-0.5s-0.9,0.3-2.2,1.4c-0.2,0-0.4-0.2-0.3-0.5c1.5-1.7,3.5-2.7,4.4-2.7
			c0.2,0,0.3,0.2,0.4,0.3c0.2,0.2,0.2,0.4-0.2,1.2l-3.2,7.6c-0.1,0.3-0.1,0.6,0.1,0.6c0.5,0,1.9-0.9,2.8-2c0.3,0,0.4,0.2,0.4,0.5
			c-0.4,0.8-3.2,3.2-5,3.2c-0.1,0-0.3-0.1-0.4-0.2c-0.2-0.2-0.2-0.4-0.1-0.7L240.7,73.7z M243.8,67c0,0.8-0.6,1.7-1.4,1.7
			c-0.7,0-0.9-0.5-0.9-1c0-0.6,0.4-1.7,1.4-1.7C243.6,65.9,243.8,66.4,243.8,67z"/>
		<path d="M248.8,74l-1.2,3.4h0.1c0.8-1.5,2.1-3.6,2.8-4.5c0.6-0.8,1.3-1.4,2-1.4c0.9,0,1.1,0.9,1.1,1.3c0,0.4-0.2,1.2-0.6,1.6
			c-0.3,0.4-0.8,0.4-0.9-0.1c-0.1-0.7-0.3-1-0.6-1c-0.2,0-0.5,0.3-0.9,0.8c-1.6,2.1-3.1,5.4-4.6,8.4c-0.1,0.2-0.2,0.3-0.5,0.3
			c-0.3,0-1.1-0.1-0.9-0.7c0.3-1.1,2-5.8,2.8-8.4c0.1-0.3,0-0.6-0.2-0.6c-0.7,0-1.4,0.8-1.9,1.4c-0.3,0.1-0.5-0.1-0.4-0.4
			c0.9-1.4,1.9-2.6,3.2-2.6C249.5,71.5,249,73.3,248.8,74z"/>
		<path d="M262.4,73.1c0,2-2.7,3.4-6.5,4.5c-0.2,0.5-0.4,1.3-0.4,2.4c0,0.9,0.6,1.5,1.3,1.5c1,0,1.6-0.5,2.8-1.6
			c0.2,0,0.4,0.2,0.3,0.5c-1.6,2-3.2,2.4-4.3,2.4c-1.6,0-2.2-1.5-2.2-2.8c0-1.7,1.1-5,4-7.2c1.4-1.1,2.4-1.3,3.2-1.3
			C261.7,71.5,262.4,72.4,262.4,73.1z M258.1,73.6c-1,1.1-1.7,2.4-2,3.1c1.8-0.5,2.6-1,3.6-2c0.8-0.8,1-1.6,1-1.8
			c0-0.3-0.1-0.6-0.6-0.6C259.8,72.3,259.1,72.5,258.1,73.6z"/>
		<path d="M263.7,72.8c-0.3-0.3-0.2-0.8,0.2-1h2.3c0.7-2.3,1.6-4.9,3.1-6.4c1.4-1.5,2.9-2.2,4.5-2.2c1.7,0,2.9,0.9,2.9,2.1
			c0,0.8-0.8,1.2-1.3,1.2c-0.5,0-0.8-0.2-0.8-0.7c0-1.2-0.5-1.8-1.4-1.8c-0.9,0-1.8,0.5-2.5,1.5c-1.2,1.7-2,4-2.7,6.3h2.5
			c0.9,0,1.6-0.1,2.3-0.2c0.6-0.1,1.1-0.2,1.3-0.2c0.6,0,0.5,0.7,0.2,1.4l-3.1,7.6c-0.1,0.3-0.1,0.6,0.1,0.6c0.5,0,1.9-0.9,2.8-2
			c0.3,0,0.4,0.2,0.4,0.5c-0.4,0.8-3.2,3.2-5,3.2c-0.1,0-0.3-0.1-0.4-0.2c-0.2-0.2-0.2-0.4-0.1-0.7l3.2-8.2c0.2-0.6,0.2-0.8-0.8-0.8
			h-3.7c-0.2,0.5-0.4,1.3-0.6,2.1c-0.9,3-1.6,6-2.5,8.9c-0.7,2.4-1.6,3.9-2.1,4.4c-0.3,0.3-1.5,1.4-3.1,1.4c-1.2,0-1.7-0.9-1.7-1.4
			c0-0.6,0.3-0.8,0.5-1c0.4-0.3,0.6-0.1,0.8,0.2c0.4,0.6,1.1,1,1.6,1c0.5,0,1.1-0.4,1.7-2.2c1.4-4.5,2.3-9.1,3.5-13.5H263.7z"/>
		<path d="M283.7,71.7c0.3,0.1,0.5,0.2,0.6,0.2c0.2,0,0.8,0,1.3-0.2c0.5-0.1,1-0.2,1.2-0.2c0.4,0,0.6,0.3,0.6,0.7
			c0,0.6-0.3,0.8-0.6,0.8c-0.3,0-0.6-0.1-0.9-0.1c-0.2-0.1-0.8-0.2-1-0.2c-0.1,0-0.3,0.1-0.2,0.2c0.1,0.2,0.2,0.6,0.2,1
			c0,2.2-1.6,4.2-3.4,5.4c-0.3,0.2-1.3,0.5-1.9,0.7c-0.3,0.2-0.6,0.5-0.6,0.9c0,0.3,0.2,0.8,0.9,1.3c0.6,0.4,1.7,1,2.6,1.6
			c1.6,0.9,2,1.7,2,2.6c0,1.5-2.2,3.2-6.5,3.2c-2,0-4.2-0.8-4.2-2.5c0-2,3.1-3.3,4.6-3.8c-0.7-0.5-0.9-0.9-0.9-1.2
			c0-0.5,0.8-1.6,1.2-2.1c-0.5-0.1-2-0.6-2-2.4c0-1.5,0.8-3.3,2.2-4.5c1.3-1.1,2.5-1.6,4-1.6C283.1,71.5,283.4,71.6,283.7,71.7z
			 M282.8,86.9c0-0.5-0.3-1-1.2-1.6c-1.1-0.8-2.1-1.3-2.5-1.3c-0.7-0.1-1.7,0.4-2.5,1c-0.7,0.5-1,1.1-1,1.7c0,1.3,1.8,2.1,3.6,2.1
			C280.5,88.7,282.8,88.2,282.8,86.9z M280.8,73.3c-1,1.2-2.4,3.6-2.4,4.9c0,0.6,0.4,0.9,0.8,0.9c0.4,0,1-0.2,1.8-1
			c1.5-1.8,2.4-4.2,2.4-5c0-0.6-0.4-0.9-0.8-0.9C282.1,72.2,281.6,72.4,280.8,73.3z"/>
		<path d="M294.2,63.4l-1.9,5.5l-2.8,8l0.1,0.1c1.9-2.7,3.3-3.7,4.2-4.4s1.8-1,2.5-1c1.2,0,1.6,0.9,1.6,1.8c0,1.9-1.1,4.6-2.1,6.3
			c-0.5,0.9-1,1.5-1.7,2.2c-0.9,0.9-1.6,1-2,1c-0.9,0-1-0.6-1-0.8c0-0.5,0.4-0.9,0.7-0.9c0.1,0,0.2,0.1,0.4,0.2
			c0.2,0.2,0.5,0.3,0.7,0.3c0.4,0,0.7-0.4,1.1-1.3c0.7-1.7,1.9-5.4,1.9-6.9c0-0.5-0.2-0.8-0.6-0.8s-0.9,0.3-1.4,0.7
			c-1.1,0.9-2,1.7-3.4,3.6c-1.2,1.6-2.5,4.2-3.2,5.6c-0.1,0.2-0.2,0.3-0.5,0.3c-0.3,0-1-0.1-0.8-0.7l5.1-15.1
			c0.6-1.8,0.7-2.1,0.3-2.4l-0.6-0.4c-0.1-0.1-0.1-0.2,0.1-0.3c0.4-0.2,2.2-0.6,3.1-0.6L294.2,63.4z"/>
		<path d="M303.9,72.9l-2.5,7.3c-0.2,0.5,0,0.7,0.2,0.7c0.4,0,2.2-1.4,3.1-2.4c0.3,0,0.4,0.2,0.4,0.5c-1.5,2.2-4,3.9-5.1,3.9
			c-0.4,0-0.7-0.4-0.7-0.7c0-0.3,0.1-0.7,0.4-1.5l2.6-7.6H300c-0.1-0.3,0-0.6,0.3-0.8l2.1-0.4l1.5-2.7c0.3-0.2,0.8-0.1,1,0.2
			l-0.8,2.6h2.9c0.2,0.3,0,0.8-0.3,1H303.9z"/>
		<path d="M315.3,73.1c0,2-2.7,3.4-6.5,4.5c-0.2,0.5-0.4,1.3-0.4,2.4c0,0.9,0.6,1.5,1.3,1.5c1,0,1.6-0.5,2.8-1.6
			c0.2,0,0.4,0.2,0.3,0.5c-1.6,2-3.2,2.4-4.3,2.4c-1.6,0-2.2-1.5-2.2-2.8c0-1.7,1.1-5,4-7.2c1.4-1.1,2.4-1.3,3.2-1.3
			C314.7,71.5,315.3,72.4,315.3,73.1z M311,73.6c-1,1.1-1.7,2.4-2,3.1c1.8-0.5,2.6-1,3.6-2c0.8-0.8,1-1.6,1-1.8
			c0-0.3-0.1-0.6-0.6-0.6C312.7,72.3,312,72.5,311,73.6z"/>
		<path d="M320.2,74l-1.2,3.4h0.1c0.8-1.5,2.1-3.6,2.8-4.5c0.6-0.8,1.3-1.4,2-1.4c0.9,0,1.1,0.9,1.1,1.3c0,0.4-0.2,1.2-0.6,1.6
			c-0.3,0.4-0.8,0.4-0.9-0.1c-0.1-0.7-0.3-1-0.6-1c-0.2,0-0.5,0.3-0.9,0.8c-1.6,2.1-3.1,5.4-4.6,8.4c-0.1,0.2-0.2,0.3-0.5,0.3
			c-0.3,0-1.1-0.1-0.9-0.7c0.3-1.1,2-5.8,2.8-8.4c0.1-0.3,0-0.6-0.2-0.6c-0.7,0-1.4,0.8-1.9,1.4c-0.3,0.1-0.5-0.1-0.4-0.4
			c0.9-1.4,1.9-2.6,3.2-2.6C320.9,71.5,320.4,73.3,320.2,74z"/>
		<path d="M331.3,73c0,0.4-0.3,0.7-0.5,0.8c-0.2,0.1-0.3,0-0.5-0.2c-0.5-0.5-0.8-0.9-1.6-0.9c-0.8,0-1.1,0.7-1.1,1.1
			c0,0.6,0.1,1.1,0.9,2.4c0.7,1.1,1.1,1.8,1,3c0,0.7-0.4,1.7-1.4,2.6c-0.7,0.6-1.7,1-2.7,1c-1,0-1.6-0.8-1.6-1.4
			c0-0.3,0.1-0.6,0.4-0.9c0.2-0.2,0.5-0.2,0.7,0c0.3,0.4,1.2,1.1,1.8,1.1c0.6,0,1.3-0.7,1.3-1.5c0-0.5-0.3-1.3-1-2.4
			c-0.7-1.1-0.9-2-0.9-2.5c0-1,0.5-1.8,1.6-2.8c0.8-0.7,1.6-0.9,2-0.9C330.7,71.5,331.3,72.3,331.3,73z"/>
		<path d="M335.1,81.4c0,1.9-2.3,3.4-4,3.9c-0.2-0.1-0.3-0.3-0.2-0.5c0.9-0.4,2.5-1.3,2.5-2.8c0-0.5-0.3-0.9-0.9-1
			c-0.2-0.1-0.4-0.3-0.4-0.6c0-0.6,0.5-1,1.2-1C334.5,79.3,335.1,80.4,335.1,81.4z"/>
		<path d="M88,106.3c0-1.3,0.4-3.6,2.6-5.8c1.7-1.8,3.4-2.1,4-2.1c1.2,0,1.4,0.7,1.7,1c1.2-1,3-2.8,3.8-3.8c0.4-0.5,1-1.6,1-2.3
			c0-0.4-0.1-0.6-0.3-0.8c-0.2-0.2-0.3-0.3-0.3-0.6c0-0.7,0.6-1.1,1.1-1.1c0.6,0,1.2,0.4,1.2,1.4c0,1.4-0.9,3.1-3.4,5.5
			c-2.2,2.2-6.7,5.6-9.5,7.5v0.2c0,3.4,2.7,4.6,4.7,4.6c2.2,0,5-1.5,6.5-4.4c1-1.9,1.4-3.2,1.4-5.4c-0.3-0.3-0.9-0.5-1.4-0.5
			c-0.8,0-2,0.8-2,1.7c0,0.2,0.1,0.6,0.2,0.9s0.2,0.6,0.2,0.8c0,0.2-0.1,0.8-0.9,0.8c-0.6,0-1.2-0.3-1.2-1.1c0-0.7,0.5-1.9,1.8-3
			c1.1-0.9,2.3-1.1,2.7-1.1c1.5,0,2.3,0.9,3.6,2.1c0.6,0.6,0.7,0.7,1.2,0.7c0.3,0,0.5-0.4,0.5-0.8c0-0.3-0.1-0.5-0.1-0.7
			c-0.1-0.2-0.1-0.3-0.1-0.4c0-0.3,0.4-0.7,0.9-0.7c0.7,0,1,0.8,1,1.5c0,0.6-0.3,1-0.5,1.3c-0.2,0.2-0.4,0.2-0.7,0.3
			c-0.5,0.1-1.5,0.4-2,0.7c-0.3,0.2-0.5,0.1-0.6-0.2c-0.1-0.2-1-1.2-1.8-1.9c0,0.5-0.1,1.8-0.1,2.3c-0.1,0.8-0.7,3.5-2.7,5.8
			c-1.9,2.1-4.6,2.9-6.4,2.9C89.7,111.6,88,109,88,106.3z M94.2,101c0-0.2,0-0.6,0-0.6c0-0.5-0.4-0.8-0.9-0.8
			c-0.4,0-1.3,0.4-2.1,1.4c-0.8,1.1-1.3,2.2-1.4,3.3C91.8,103,93.3,101.8,94.2,101z"/>
		<path d="M114.2,109.8c-0.1-1,0.1-2.3,0.5-3.1c0.2-0.1,0.4-0.1,0.6,0.1c0.2,2.3,1.3,4.1,4,4.1c1.7,0,3.9-1.1,3.9-3.8
			c0-2-1.3-3.1-2.7-4.2c-1.4-1.1-2.8-2.7-2.8-4.7c0-2.9,2.3-5.1,5.9-5.1c1.7,0,3.3,0.7,3.9,1.1c-0.4,0.7-0.7,2.2-1,3.1
			c-0.2,0.2-0.6,0.1-0.7,0c0.4-1.8-0.1-3.3-2.5-3.3c-2.4,0-3.6,1.6-3.6,3.4c0,1.8,1.6,3.1,2.6,3.9c1.6,1.3,2.9,2.7,2.9,4.9
			c0,3.2-2.4,5.5-6.2,5.5C117,111.7,115.1,111.1,114.2,109.8z"/>
		<path d="M136,101.9c0,2-2.7,3.4-6.5,4.5c-0.2,0.5-0.4,1.3-0.4,2.4c0,0.9,0.6,1.5,1.3,1.5c1,0,1.6-0.5,2.8-1.6
			c0.2,0,0.4,0.2,0.3,0.5c-1.6,2-3.2,2.4-4.3,2.4c-1.6,0-2.2-1.5-2.2-2.8c0-1.7,1.1-5,4-7.2c1.4-1.1,2.4-1.3,3.2-1.3
			C135.4,100.3,136,101.2,136,101.9z M131.7,102.4c-1,1.1-1.7,2.4-2,3.1c1.8-0.5,2.6-1,3.6-2c0.8-0.8,1-1.6,1-1.8
			c0-0.3-0.1-0.6-0.6-0.6C133.4,101.2,132.7,101.4,131.7,102.4z"/>
		<path d="M139.9,106.1L139.9,106.1c2-2.8,4.6-5.8,6.6-5.8c1,0,1.5,0.6,1.5,1.4c0,0.4-0.2,1.3-0.4,1.9c-0.5,1.3-2.4,5.7-2.5,5.9
			c-0.1,0.3-0.1,0.5,0.1,0.5c0.5,0,1.7-0.9,2.5-1.8c0.4-0.1,0.4,0.2,0.4,0.4c-1,1.7-3.1,3-4.6,3c-0.2,0-0.6-0.3-0.6-0.7
			c0-0.2,0.1-0.4,0.6-1.8c0.6-1.3,1.6-3.9,2.2-5.3c0.2-0.5,0.6-1.4,0.6-2c0-0.3,0-0.6-0.4-0.6c-0.6,0-2.2,1.3-3.7,3.2
			c-1.4,1.8-2.5,3.9-4.1,6.8c-0.1,0.2-0.2,0.3-0.5,0.3c-0.3,0-1-0.1-0.8-0.7l3.1-8.4c0.1-0.3,0.1-0.6-0.1-0.6
			c-0.6,0-1.6,0.6-2.4,1.3c-0.2,0-0.3-0.2-0.3-0.4c1-1.4,2.7-2.5,4-2.5c0.6,0,0.9,0.5,0.7,1.1L139.9,106.1z"/>
		<path d="M153.2,102.6c0.1-0.3,0.1-0.5-0.1-0.5s-0.9,0.3-2.2,1.4c-0.2,0-0.4-0.2-0.3-0.5c1.5-1.7,3.5-2.7,4.4-2.7
			c0.2,0,0.3,0.2,0.4,0.3c0.2,0.2,0.2,0.4-0.2,1.2l-3.2,7.6c-0.1,0.3-0.1,0.6,0.1,0.6c0.5,0,1.9-0.9,2.8-2c0.3,0,0.4,0.2,0.4,0.5
			c-0.4,0.8-3.2,3.2-5,3.2c-0.1,0-0.3-0.1-0.4-0.2c-0.2-0.2-0.2-0.4-0.1-0.7L153.2,102.6z M156.4,95.8c0,0.8-0.6,1.7-1.4,1.7
			c-0.7,0-0.9-0.5-0.9-1c0-0.6,0.4-1.7,1.4-1.7C156.1,94.8,156.4,95.2,156.4,95.8z"/>
		<path d="M166.4,103.7c-0.1,1.5-0.9,4-2.8,6.1c-1.7,1.7-3.1,1.8-3.8,1.8c-1.7,0-2.8-1.3-2.7-3.6c0.1-1.7,1.1-4.3,2.9-6
			c1.4-1.3,2.6-1.7,3.7-1.7C165.6,100.3,166.5,101.8,166.4,103.7z M161.5,102.4c-1.6,2.1-2.6,5.3-2.7,6.7c-0.1,0.9,0.3,1.7,1.1,1.7
			c0.6,0,1.3-0.2,2.1-1.4c1.2-1.6,2.4-5.1,2.5-6.5c0-0.8-0.1-1.8-1.1-1.8C163,101.1,162.3,101.4,161.5,102.4z"/>
		<path d="M172.2,102.9l-1.2,3.4h0.1c0.8-1.5,2.1-3.6,2.8-4.5c0.6-0.8,1.3-1.4,2-1.4c0.9,0,1.1,0.9,1.1,1.3c0,0.4-0.2,1.2-0.6,1.6
			c-0.3,0.4-0.8,0.4-0.9-0.1c-0.1-0.7-0.3-1-0.6-1c-0.2,0-0.5,0.3-0.9,0.8c-1.6,2.1-3.1,5.4-4.6,8.4c-0.1,0.2-0.2,0.3-0.5,0.3
			c-0.3,0-1.1-0.1-0.9-0.7c0.3-1.1,2-5.8,2.8-8.4c0.1-0.3,0-0.6-0.2-0.6c-0.7,0-1.4,0.8-1.9,1.4c-0.3,0.1-0.5-0.1-0.4-0.4
			c0.9-1.4,1.9-2.6,3.2-2.6C172.9,100.3,172.5,102.2,172.2,102.9z"/>
		<path d="M183.3,101.9c0,0.4-0.3,0.7-0.5,0.8c-0.2,0.1-0.3,0-0.5-0.2c-0.5-0.5-0.8-0.9-1.6-0.9c-0.8,0-1.1,0.7-1.1,1.1
			c0,0.6,0.1,1.1,0.9,2.4c0.7,1.1,1.1,1.8,1,3c0,0.7-0.4,1.7-1.4,2.6c-0.7,0.6-1.7,1-2.7,1c-1,0-1.6-0.8-1.6-1.4
			c0-0.3,0.1-0.6,0.4-0.9c0.2-0.2,0.5-0.2,0.7,0c0.3,0.4,1.2,1.1,1.8,1.1c0.6,0,1.3-0.7,1.3-1.5c0-0.5-0.3-1.3-1-2.4
			c-0.7-1.1-0.9-2-0.9-2.5c0-1,0.5-1.8,1.6-2.8c0.8-0.7,1.6-0.9,2-0.9C182.7,100.3,183.3,101.2,183.3,101.9z"/>
		<path d="M200.2,99.7c0.5-0.2,1.2,0.1,1.3,0.4c-0.4,1-2.7,6.9-3.6,9.4c-0.2,0.5,0,0.6,0.2,0.6c0.5,0,1.2-0.5,2.8-1.8
			c0.2,0,0.4,0.1,0.4,0.3c-1.1,1.5-3,3-4.5,3c-0.6,0-0.8-0.5-0.8-0.7c0-0.2,0.1-0.4,0.3-1l0.9-2.4l-0.1,0c-1.9,2.4-4.6,4.2-5.9,4.2
			c-0.8,0-1.2-0.8-1.2-1.5c0-0.6,0.6-2.8,2.4-5.2c1.3-1.8,2.4-2.8,3.5-3.5c1-0.6,1.7-0.8,2.4-0.8c0.3,0,0.5,0.1,0.6,0.2
			c0.1,0.1,0.4,0.3,0.5,0.6L200.2,99.7z M195.5,102.8c-1.7,1.5-3.4,5-3.4,6.9c0,0.3,0.2,0.5,0.4,0.5c0.3,0,1.1-0.3,2.6-1.7
			c2-1.9,3.2-4.2,3.6-5.8c-0.2-0.5-0.6-1-1.3-1C196.8,101.7,196.4,102,195.5,102.8z"/>
		<path d="M209.9,100.6c0.3,0.1,0.5,0.2,0.6,0.2c0.2,0,0.8,0,1.3-0.2c0.5-0.1,1-0.2,1.2-0.2c0.4,0,0.6,0.3,0.6,0.7
			c0,0.6-0.3,0.8-0.6,0.8c-0.3,0-0.6-0.1-0.9-0.1c-0.2-0.1-0.8-0.2-1-0.2c-0.1,0-0.3,0.1-0.2,0.2c0.1,0.2,0.2,0.6,0.2,1
			c0,2.2-1.6,4.2-3.4,5.4c-0.3,0.2-1.3,0.5-1.9,0.7c-0.3,0.2-0.6,0.5-0.6,0.9c0,0.3,0.2,0.8,0.9,1.3c0.6,0.4,1.7,1,2.6,1.6
			c1.6,0.9,2,1.7,2,2.6c0,1.5-2.2,3.2-6.5,3.2c-2,0-4.2-0.8-4.2-2.5c0-2,3.1-3.3,4.6-3.8c-0.7-0.5-0.9-0.9-0.9-1.2
			c0-0.5,0.8-1.6,1.2-2.1c-0.5-0.1-2-0.6-2-2.4c0-1.5,0.8-3.3,2.2-4.5c1.3-1.1,2.5-1.6,4-1.6C209.3,100.3,209.6,100.5,209.9,100.6z
			 M208.9,115.8c0-0.5-0.3-1-1.2-1.6c-1.1-0.8-2.1-1.3-2.5-1.3c-0.7-0.1-1.7,0.4-2.5,1c-0.7,0.5-1,1.1-1,1.7c0,1.3,1.8,2.1,3.6,2.1
			C206.6,117.6,208.9,117.1,208.9,115.8z M206.9,102.2c-1,1.2-2.4,3.6-2.4,4.9c0,0.6,0.4,0.9,0.8,0.9c0.4,0,1-0.2,1.8-1
			c1.5-1.8,2.4-4.2,2.4-5c0-0.6-0.4-0.9-0.8-0.9C208.3,101.1,207.8,101.3,206.9,102.2z"/>
		<path d="M221.4,101.9c0,2-2.7,3.4-6.5,4.5c-0.2,0.5-0.4,1.3-0.4,2.4c0,0.9,0.6,1.5,1.3,1.5c1,0,1.6-0.5,2.8-1.6
			c0.2,0,0.4,0.2,0.3,0.5c-1.6,2-3.2,2.4-4.3,2.4c-1.6,0-2.2-1.5-2.2-2.8c0-1.7,1.1-5,4-7.2c1.4-1.1,2.4-1.3,3.2-1.3
			C220.8,100.3,221.4,101.2,221.4,101.9z M217.1,102.4c-1,1.1-1.7,2.4-2,3.1c1.8-0.5,2.6-1,3.6-2c0.8-0.8,1-1.6,1-1.8
			c0-0.3-0.1-0.6-0.6-0.6C218.8,101.2,218.1,101.4,217.1,102.4z"/>
		<path d="M234.3,102.5c-0.1-0.2-0.2-0.4-0.1-0.5c0.6-0.5,1.7-0.8,2.3-0.8c2.2,0,3.9,1.3,3.9,4.5c0,2.9-2.8,6-6.4,6
			c-3.3,0-5-2-5-5.2c0-3.8,2.6-7.9,5.6-10.1c3.8-2.8,7.6-3.4,9.4-3.6c0.2,0.1,0.2,0.5,0.1,0.6c-1.9,0.5-4.5,1.1-7.1,3
			c-3.6,2.7-5.8,7.1-5.8,10.7c0,2.3,0.8,3.9,2.9,3.9c2.5,0,3.9-3.2,3.9-5.5c0-1.8-0.9-3-2.4-3C235.3,102.3,234.6,102.4,234.3,102.5z
			"/>
		<path d="M247.9,106.3c-3.1,2.4-3.6,3-3.6,3.2c0,0.2,0.2,0.2,0.9,0.2h3.1c2.3,0,2.5,0,3.7-1.6c0.2-0.1,0.5,0,0.6,0.2
			c-0.3,1-1.1,2.6-1.5,3.1c-1.1-0.1-2.2-0.1-3.9-0.1h-3.9c-1.4,0-2.3,0-2.8,0.1c-0.1-0.1-0.2-0.2-0.2-0.3c0-0.1,0-0.1,0-0.1
			c1.6-1.1,2.9-2,5.5-4.2c2.4-2,6.5-5.1,6.5-8.3c0-2-1.2-3.1-2.8-3.1c-1.7,0-3.1,1.2-4,2.5c-0.3,0.1-0.6,0-0.6-0.4
			c1.2-2.1,3.4-3.3,5.4-3.3c2.8,0,4.3,1.6,4.3,4c0,2.6-2.3,4.7-4.5,6.4L247.9,106.3z"/>
		<path d="M260.5,111.3v-4.9h-4.4v-1.3h4.4v-4.4h1.6v4.4h4.4v1.3h-4.4v4.9H260.5z"/>
		<path d="M268.2,111.3l0.6-2.7h2.7l-0.6,2.7H268.2z"/>
	</g>
	<g>
		<path class="st0" d="M146.6,217l8.1-14.3h2.3l2.4,14.3h-1.9l-0.7-4.1H151l-2.3,4.1H146.6z M151.8,211.4h4.7l-0.6-3.6
			c-0.2-1.4-0.3-2.6-0.4-3.6c-0.3,0.8-0.8,1.8-1.4,2.9L151.8,211.4z"/>
		<path class="st0" d="M160.9,217l3-14.3h1.8l-3,14.3H160.9z"/>
		<path class="st0" d="M165.2,217l3-14.3h1.8l-3,14.3H165.2z"/>
		<path class="st0" d="M176.1,212.3l1.9-0.2l0,0.5c0,0.6,0.1,1.1,0.4,1.5c0.3,0.5,0.7,0.8,1.3,1.1s1.3,0.4,2.1,0.4
			c1.1,0,2-0.3,2.6-0.8c0.6-0.5,0.9-1.1,0.9-1.7c0-0.5-0.2-0.9-0.5-1.2c-0.3-0.4-1.2-0.9-2.7-1.5c-1.1-0.5-1.9-0.9-2.3-1.1
			c-0.6-0.4-1.1-0.9-1.4-1.4c-0.3-0.5-0.5-1.1-0.5-1.7c0-0.7,0.2-1.4,0.6-2c0.4-0.6,1-1,1.8-1.4c0.8-0.3,1.7-0.5,2.6-0.5
			c1.2,0,2.2,0.2,3,0.6c0.8,0.4,1.4,0.9,1.7,1.6c0.4,0.7,0.5,1.3,0.5,1.9c0,0.1,0,0.2,0,0.3l-1.8,0.1c0-0.4,0-0.7-0.1-0.9
			c-0.1-0.4-0.3-0.7-0.6-1c-0.3-0.3-0.7-0.5-1.1-0.7c-0.5-0.2-1-0.2-1.6-0.2c-1,0-1.9,0.2-2.4,0.7c-0.4,0.4-0.7,0.8-0.7,1.4
			c0,0.4,0.1,0.7,0.3,0.9s0.5,0.5,1,0.8c0.3,0.2,1.1,0.6,2.4,1.1c1,0.5,1.7,0.8,2.1,1.1c0.5,0.3,0.9,0.8,1.2,1.3s0.4,1.1,0.4,1.7
			c0,0.8-0.2,1.5-0.7,2.1c-0.5,0.7-1.1,1.2-2,1.5c-0.8,0.4-1.8,0.5-2.9,0.5c-1.6,0-3-0.4-4-1.1C176.7,215.5,176.2,214.2,176.1,212.3
			z"/>
		<path class="st0" d="M196.4,213.5l1.7,0.2c-0.2,0.9-0.8,1.7-1.7,2.4c-0.9,0.8-2,1.2-3.2,1.2c-0.8,0-1.5-0.2-2.1-0.5
			c-0.6-0.4-1.1-0.9-1.5-1.5c-0.3-0.7-0.5-1.5-0.5-2.3c0-1.1,0.3-2.2,0.8-3.3c0.5-1.1,1.2-1.9,2-2.4s1.7-0.8,2.7-0.8
			c1.2,0,2.2,0.4,3,1.2s1.1,1.8,1.1,3.1c0,0.5,0,1-0.1,1.6H191c0,0.2,0,0.4,0,0.5c0,1,0.2,1.7,0.7,2.2c0.4,0.5,1,0.8,1.6,0.8
			c0.6,0,1.2-0.2,1.8-0.6C195.6,214.8,196.1,214.2,196.4,213.5z M191.2,210.9h5.8c0-0.2,0-0.3,0-0.4c0-0.9-0.2-1.6-0.7-2
			c-0.4-0.5-1-0.7-1.7-0.7c-0.8,0-1.4,0.3-2.1,0.8C192,209,191.6,209.8,191.2,210.9z"/>
		<path class="st0" d="M199.6,217l2.2-10.4h1.6l-0.4,2.1c0.5-0.8,1.1-1.4,1.6-1.8s1-0.6,1.6-0.6c0.4,0,0.8,0.1,1.3,0.4l-0.7,1.6
			c-0.3-0.2-0.6-0.3-1-0.3c-0.6,0-1.3,0.3-1.9,1c-0.7,0.7-1.2,1.9-1.5,3.7l-0.9,4.2H199.6z"/>
		<path class="st0" d="M209.6,217l-1.7-10.4h1.7l0.9,5.7c0.1,0.6,0.2,1.6,0.4,3.1c0.3-0.7,0.8-1.6,1.3-2.5l3.5-6.3h1.9l-5.9,10.4
			H209.6z"/>
		<path class="st0" d="M216.8,217l2.2-10.4h1.8l-2.2,10.4H216.8z M219.4,204.6l0.4-2h1.8l-0.4,2H219.4z"/>
		<path class="st0" d="M228.3,213.2l1.8,0.2c-0.4,1.3-1.1,2.3-1.9,2.9c-0.8,0.6-1.8,0.9-2.8,0.9c-1.1,0-2-0.4-2.7-1.1
			c-0.7-0.7-1.1-1.8-1.1-3.1c0-1.1,0.2-2.2,0.7-3.3s1.1-1.9,1.9-2.5c0.8-0.6,1.8-0.9,2.9-0.9c1.1,0,2,0.3,2.7,0.9
			c0.7,0.6,1,1.5,1,2.5l-1.7,0.1c0-0.7-0.2-1.2-0.6-1.5c-0.4-0.4-0.9-0.6-1.5-0.6c-0.7,0-1.3,0.2-1.8,0.7c-0.5,0.5-0.9,1.1-1.2,2
			c-0.3,0.9-0.4,1.8-0.4,2.6c0,0.9,0.2,1.6,0.6,2c0.4,0.4,0.9,0.7,1.4,0.7s1.1-0.2,1.6-0.7C227.6,214.8,228,214.1,228.3,213.2z"/>
		<path class="st0" d="M238.8,213.5l1.7,0.2c-0.2,0.9-0.8,1.7-1.7,2.4c-0.9,0.8-2,1.2-3.2,1.2c-0.8,0-1.5-0.2-2.1-0.5
			c-0.6-0.4-1.1-0.9-1.5-1.5c-0.3-0.7-0.5-1.5-0.5-2.3c0-1.1,0.3-2.2,0.8-3.3c0.5-1.1,1.2-1.9,2-2.4s1.7-0.8,2.7-0.8
			c1.2,0,2.2,0.4,3,1.2s1.1,1.8,1.1,3.1c0,0.5,0,1-0.1,1.6h-7.7c0,0.2,0,0.4,0,0.5c0,1,0.2,1.7,0.7,2.2c0.4,0.5,1,0.8,1.6,0.8
			c0.6,0,1.2-0.2,1.8-0.6C238,214.8,238.5,214.2,238.8,213.5z M233.6,210.9h5.8c0-0.2,0-0.3,0-0.4c0-0.9-0.2-1.6-0.7-2
			c-0.4-0.5-1-0.7-1.7-0.7c-0.8,0-1.4,0.3-2.1,0.8C234.4,209,233.9,209.8,233.6,210.9z"/>
		<path class="st0" d="M242.1,213.4l1.8-0.1c0,0.5,0.1,0.9,0.2,1.3c0.2,0.4,0.4,0.7,0.9,0.9c0.4,0.2,0.9,0.3,1.5,0.3
			c0.8,0,1.4-0.2,1.8-0.5c0.4-0.3,0.6-0.7,0.6-1.1c0-0.3-0.1-0.6-0.4-0.9c-0.2-0.3-0.8-0.6-1.8-1c-0.9-0.4-1.5-0.7-1.8-0.8
			c-0.4-0.3-0.8-0.6-1-0.9c-0.2-0.4-0.3-0.8-0.3-1.2c0-0.8,0.3-1.5,1-2.1s1.6-0.9,2.7-0.9c1.3,0,2.3,0.3,3,0.9
			c0.7,0.6,1,1.4,1.1,2.4l-1.7,0.1c0-0.6-0.2-1.1-0.7-1.5s-1-0.5-1.8-0.5c-0.6,0-1.1,0.1-1.4,0.4s-0.5,0.6-0.5,0.9s0.1,0.6,0.4,0.9
			c0.2,0.2,0.7,0.4,1.5,0.8c1.4,0.6,2.2,1,2.6,1.4c0.6,0.5,0.8,1.2,0.8,2c0,0.5-0.2,1-0.5,1.5c-0.3,0.5-0.8,0.9-1.4,1.2
			c-0.6,0.3-1.4,0.4-2.3,0.4c-1.2,0-2.2-0.3-3.1-0.9C242.4,215.7,242,214.8,242.1,213.4z"/>
	</g>
</g>
</svg>
