<?xml version="1.0" encoding="utf-8"?>
<!-- Generator: Adobe Illustrator 21.0.0, SVG Export Plug-In . SVG Version: 6.00 Build 0)  -->
<svg version="1.1" id="Layer_1" xmlns="http://www.w3.org/2000/svg" xmlns:xlink="http://www.w3.org/1999/xlink" x="0px" y="0px"
	 width="12px" height="46px" viewBox="0 0 12 46" style="enable-background:new 0 0 12 46;" xml:space="preserve">
<g>
	<path d="M0.8,13.7H0v2.2h1.5V19l3.3-3.2h2.8l-6.1,6.3v2.1l8.1-8.4h1.9v-2.2h-1.3l-1.3-2.5c1.7-1,2.9-3,2.9-5.1c0-3.3-2.7-6-6-6
		C2.7,0,0,2.7,0,6c0,2.2,1.2,4.1,2.9,5.1l-0.3,0L0.8,13.7z"/>
	<polygon points="10.4,17.3 1.6,26.9 1.6,29.6 10.4,19.9 	"/>
	<polygon points="10.4,23.5 1.6,32.6 1.6,35.3 10.4,26.2 	"/>
	<polygon points="1.6,40.2 10.4,31.4 10.4,28.9 1.6,37.9 	"/>
	<polygon points="10.4,38.2 7.4,41.4 4.5,41.4 10.4,35.9 10.4,34 2.6,41.4 0.1,41.4 0.1,43.7 1.4,43.7 2.8,46 9.2,46 10.9,43.7 
		11.9,43.7 11.9,41.4 10.4,41.4 	"/>
</g>
</svg>
