<?xml version="1.0" encoding="utf-8"?>
<!-- Generator: Adobe Illustrator 21.0.0, SVG Export Plug-In . SVG Version: 6.00 Build 0)  -->
<svg version="1.1" id="Layer_1" xmlns="http://www.w3.org/2000/svg" xmlns:xlink="http://www.w3.org/1999/xlink" x="0px" y="0px"
	 width="15.3px" height="35.5px" viewBox="0 0 15.3 35.5" style="enable-background:new 0 0 15.3 35.5;" xml:space="preserve">
<path d="M9.5,35.4c-1,0.3-2.1,0-2.9-0.8c-0.8-0.8-1.7-1.8-2.2-2.6c-2.4-3.7-4-8.6-4.3-13.8C-0.2,12.9,0.7,7.9,2.7,4
	C3.2,3.1,4,2,4.6,1.1C5.3,0.3,6.3-0.1,7.4,0l4.5,0.6c1.2,0.2,1.9,1.3,1.6,2.4l-1.7,6.5c-0.2,0.9-1.1,1.5-2,1.5l-3.5-0.2
	c-0.5,2.3-0.9,4.2-0.7,7.1c0.2,2.7,0.6,4.6,1.5,6.8l3.5-0.6c0.9-0.2,1.9,0.4,2.2,1.3l2.4,6.3c0.4,1.1-0.2,2.3-1.3,2.6L9.5,35.4z"/>
</svg>
