<?xml version="1.0" encoding="utf-8"?>
<!-- Generator: Adobe Illustrator 21.0.0, SVG Export Plug-In . SVG Version: 6.00 Build 0)  -->
<svg version="1.1" id="Layer_1" xmlns="http://www.w3.org/2000/svg" xmlns:xlink="http://www.w3.org/1999/xlink" x="0px" y="0px"
	 width="20px" height="32px" viewBox="0 0 20 32" style="enable-background:new 0 0 20 32;" xml:space="preserve">
<g transform="translate(0,-952.36218)">
	<path d="M10,952.4c-5.5,0-10,3.9-10,10.4c0,2.3,0.5,3.8,1.5,5.6l8.5,16l8.5-16c1-1.8,1.5-3.3,1.5-5.6C20,956.3,15.5,952.4,10,952.4
		z M10,958c2.4,0,4.3,1.9,4.3,4.3c0,2.4-1.9,4.3-4.3,4.3s-4.3-1.9-4.3-4.3C5.7,959.9,7.6,958,10,958z"/>
</g>
</svg>
