<svg id="Layer_2" data-name="Layer 2" xmlns="http://www.w3.org/2000/svg" width="164" height="155.24" viewBox="0 0 164 155.24"><defs><style>.cls-1{fill:#ffc933;}.cls-2{fill:#fff;}</style></defs><title>logo-olb</title><polygon class="cls-1" points="0.75 30.8 82 0.8 163.25 30.8 163.25 38.7 0.75 66.3 0.75 30.8"/><path d="M82,1.6l80.5,29.72v6.74L1.5,65.41V31.32L82,1.6M82,0,0,30.28V67.18L164,39.33V30.28L82,0Z" transform="translate(0 0)"/><polygon class="cls-1" points="0.75 124.44 0.75 115.45 163.25 87.86 163.25 124.44 82 154.44 0.75 124.44"/><path d="M162.5,88.74v35.17L82,153.64,1.5,123.92v-7.83l161-27.35M164,87,0,114.82V125l82,30.28L164,125V87Z" transform="translate(0 0)"/><path d="M70.25,115.85v-.62a2.16,2.16,0,0,0-2.72-2l-2.84.47.14,9.88,2.92-.49a3.11,3.11,0,0,0,2.65-2.88v-1a2,2,0,0,0-.81-1.59A2.7,2.7,0,0,0,70.25,115.85ZM66.39,115l1.16-.19a.81.81,0,0,1,1,.73v.62a1.18,1.18,0,0,1-1,1.08l-1.16.19Zm2.33,5.54a1.16,1.16,0,0,1-1,1.07l-1.24.21,0-2.84,1.16-.19.08,0v0a.81.81,0,0,1,1,.73Z" transform="translate(0 0)"/><path d="M79.25,111.28l-2.1,10.27,1.73-.29.35-1.74,2-.34.4,1.61,1.72-.29L81,111Zm.32,6.65.61-3,.69,2.75Z" transform="translate(0 0)"/><path d="M95.72,112v-1A2.16,2.16,0,0,0,93,109l-2.84.47.14,9.88,1.68-.28-.06-4,1.16-.19h.08l1.08,3.82L96,118.4l-1.22-4.34A2.86,2.86,0,0,0,95.72,112Zm-1.68.28a1.17,1.17,0,0,1-1,1.07l-1.16.19,0-2.84,1.16-.19a.81.81,0,0,1,1,.73Z" transform="translate(0 0)"/><path d="M108.33,109.48v-.62a2.16,2.16,0,0,0-2.72-2l-2.84.47.14,9.88,2.92-.49a3.11,3.11,0,0,0,2.65-2.88v-1a2,2,0,0,0-.81-1.59A2.7,2.7,0,0,0,108.33,109.48Zm-3.86-.88,1.16-.19a.81.81,0,0,1,1,.73v.62a1.18,1.18,0,0,1-1,1.08l-1.16.19Zm2.33,5.54a1.16,1.16,0,0,1-1,1.07l-1.24.21,0-2.84,1.16-.19.08,0v0a.81.81,0,0,1,1,.73Z" transform="translate(0 0)"/><polygon points="115.45 115.13 120.07 114.36 120.05 112.82 117.11 113.31 117.07 110.67 119.06 110.34 119.04 108.81 117.05 109.14 117.01 106.5 119.95 106.01 119.93 104.47 115.31 105.25 115.45 115.13"/><path d="M132.43,105.87v-1a2.16,2.16,0,0,0-2.72-2l-2.84.47.14,9.88,1.68-.28-.06-4,1.15-.19h.09l1.08,3.82,1.73-.29-1.22-4.34A2.86,2.86,0,0,0,132.43,105.87Zm-1.68.28a1.16,1.16,0,0,1-1,1.07l-1.15.19,0-2.84,1.15-.19a.81.81,0,0,1,1,.73Z" transform="translate(0 0)"/><path d="M142.74,105c-1.1-.7-1.48-1.17-1.49-1.91s.24-1,.8-1.08.82.17.83.81v.3l1.72-.29v-.19c0-1.64-1-2.41-2.62-2.13a2.77,2.77,0,0,0-2.53,3c0,1.19.52,1.93,1.95,2.83,1.1.7,1.48,1.17,1.49,1.91a.92.92,0,0,1-.84,1.07c-.58.1-.85-.15-.86-.79v-.45l-1.72.29v.34c0,1.64,1,2.4,2.65,2.12a2.78,2.78,0,0,0,2.56-3C144.67,106.65,144.17,105.91,142.74,105Z" transform="translate(0 0)"/><path d="M60.07,66.12l-4.14.72-.16,27,4.14-.72a4.41,4.41,0,0,0,3.46-4.16l.12-19.85A2.86,2.86,0,0,0,60.07,66.12Z" transform="translate(0 0)"/><path d="M14.32,73.58a5.18,5.18,0,0,0-4,4.94L10.15,98a3.36,3.36,0,0,0,4,3.54,5.18,5.18,0,0,0,4.05-4.94l.12-19.49A3.36,3.36,0,0,0,14.32,73.58Z" transform="translate(0 0)"/><path d="M164,31.78,0,59.63v61.06L164,92.84ZM24,95.6c0,5.72-4.44,11.09-9.86,12S4.34,104.73,4.37,99l.12-19.49c0-5.72,4.44-11.09,9.86-12s9.77,2.91,9.74,8.62Zm22.62,5.89-17.32,3,.24-39.16,5.77-1-.2,33.07,11.55-2ZM69.14,87.94a11.79,11.79,0,0,1-9.27,11.25L50,100.91l.24-39.16L60.1,60c5.07-.88,9.19,2.7,9.16,8Zm30.18,4.39L82,95.34l.24-39.16,5.77-1-.2,33.07,11.55-2Zm10.35-1.74-5.77,1,.24-39.22,5.77-1Zm28.18-4.9-6.07,1.05-9.54-22.54-.15,24.22-5.77,1,.24-39.22,6.07-1.05,9.54,22.47.15-24.16,5.78-1ZM156.1,59.86l0,6.09-6.83,1.19-.06,10.45,10.09-1.75,0,6.09-15.86,2.76.24-39.16,15.86-2.76,0,6.09L149.34,50.6l-.06,10.45Z" transform="translate(0 0)"/><path class="cls-2" d="M14.35,67.49c-5.42.94-9.83,6.31-9.86,12L4.37,99c0,5.72,4.31,9.57,9.74,8.62s9.83-6.31,9.86-12l.12-19.49C24.12,70.4,19.78,66.55,14.35,67.49ZM18.2,96.61a5.18,5.18,0,0,1-4.05,4.94,3.36,3.36,0,0,1-4-3.54l.12-19.49a5.18,5.18,0,0,1,4-4.94,3.36,3.36,0,0,1,4,3.54Z" transform="translate(0 0)"/><polygon class="cls-2" points="35.27 64.35 29.5 65.35 29.27 104.51 46.59 101.5 46.63 95.41 35.08 97.42 35.27 64.35"/><path class="cls-2" d="M60.1,60l-9.92,1.72L50,100.91l9.92-1.72a11.79,11.79,0,0,0,9.27-11.25l.12-19.85C69.29,62.73,65.18,59.15,60.1,60Zm3.26,28.91A4.41,4.41,0,0,1,59.9,93.1l-4.14.72.16-27,4.14-.72a2.86,2.86,0,0,1,3.42,3Z" transform="translate(0 0)"/><polygon class="cls-2" points="88.01 55.18 82.24 56.19 82 95.34 99.32 92.33 99.36 86.25 87.81 88.25 88.01 55.18"/><polygon class="cls-2" points="103.9 91.6 109.67 90.59 109.91 51.38 104.14 52.38 103.9 91.6"/><polygon class="cls-2" points="132.17 71.64 122.63 49.16 116.57 50.22 116.33 89.44 122.11 88.43 122.25 64.21 131.79 86.75 137.85 85.69 138.09 46.48 132.32 47.48 132.17 71.64"/><polygon class="cls-2" points="159.43 48.85 159.47 42.76 143.6 45.52 143.37 84.68 159.23 81.92 159.27 75.83 149.18 77.59 149.24 67.14 156.06 65.95 156.1 59.87 149.28 61.05 149.34 50.6 159.43 48.85"/><polygon points="41.49 25.88 52.16 26.24 62.83 26.6 62.83 25.88 62.83 25.17 52.16 25.52 41.49 25.88"/><polygon points="111.7 25.52 101.03 25.17 101.03 25.88 101.03 26.6 111.7 26.24 122.37 25.88 111.7 25.52"/><path class="cls-1" d="M68.83,24.58h1.11V23.35s0,0,0-.07a1.3,1.3,0,1,1,2.6,0s0,0,0,.07v1.23h8.1V21.71H79.31a1.3,1.3,0,0,1,0-2.6h1.31v-.63s0,0,0-.07a1.3,1.3,0,0,1,1.29-1.3h0V11.29h0A14.61,14.61,0,0,0,67.33,25.85h.21A1.3,1.3,0,0,1,68.83,24.58Z" transform="translate(0 0)"/><path d="M81.92,11.29v5.83a1.3,1.3,0,0,1,1.3,1.3s0,0,0,.07v.63h1.29a1.3,1.3,0,1,1,0,2.6H83.21v2.87h8.06V23.35s0,0,0-.07a1.3,1.3,0,1,1,2.6,0s0,0,0,.07v1.23H95a1.3,1.3,0,0,1,1.3,1.27h.21A14.61,14.61,0,0,0,81.92,11.29Z" transform="translate(0 0)"/><path d="M81.91,34.65a1.3,1.3,0,0,1-1.29-1.3s0,0,0-.07v-.71H79.31a1.3,1.3,0,0,1,0-2.6h1.31v-2.8h-8.1V28.4s0,0,0,.07a1.3,1.3,0,0,1-2.6,0s0,0,0-.07V27.17H68.83a1.3,1.3,0,0,1-1.3-1.3s0,0,0,0h-.21s0,0,0,0A14.61,14.61,0,0,0,81.92,40.47h0V34.65Z" transform="translate(0 0)"/><path class="cls-1" d="M96.3,25.88a1.3,1.3,0,0,1-1.3,1.3H93.86V28.4s0,0,0,.07a1.3,1.3,0,0,1-2.6,0s0,0,0-.07V27.17H83.21V30h1.29a1.3,1.3,0,1,1,0,2.6H83.21v.71s0,0,0,.07a1.3,1.3,0,0,1-1.3,1.3v5.83A14.61,14.61,0,0,0,96.51,25.88s0,0,0,0H96.3S96.3,25.87,96.3,25.88Z" transform="translate(0 0)"/><polygon points="81.91 25.85 81.91 34.65 81.92 34.65 81.92 25.85 81.91 25.85"/><path d="M81.92,34.65a1.3,1.3,0,0,0,1.3-1.3s0,0,0-.07v-.71h1.29a1.3,1.3,0,1,0,0-2.6H83.21v-2.8h8.06V28.4s0,0,0,.07a1.3,1.3,0,0,0,2.6,0s0,0,0-.07V27.17H95a1.3,1.3,0,0,0,1.3-1.3s0,0,0,0H81.92Z" transform="translate(0 0)"/><path class="cls-1" d="M67.54,25.85s0,0,0,0a1.3,1.3,0,0,0,1.3,1.3h1.11V28.4s0,0,0,.07a1.3,1.3,0,0,0,2.6,0s0,0,0-.07V27.17h8.1V30H79.31a1.3,1.3,0,0,0,0,2.6h1.31v.71s0,0,0,.07a1.3,1.3,0,0,0,1.29,1.3v-8.8Z" transform="translate(0 0)"/><path d="M81.91,17.12a1.3,1.3,0,0,0-1.29,1.3s0,0,0,.07v.63H79.31a1.3,1.3,0,0,0,0,2.6h1.31v2.87h-8.1V23.35s0,0,0-.07a1.3,1.3,0,1,0-2.6,0s0,0,0,.07v1.23H68.83a1.3,1.3,0,0,0-1.3,1.27H81.91Z" transform="translate(0 0)"/><polygon class="cls-2" points="81.91 25.85 81.92 25.85 81.92 17.12 81.91 17.12 81.91 25.85"/><path class="cls-1" d="M96.3,25.85A1.3,1.3,0,0,0,95,24.58H93.86V23.35s0,0,0-.07a1.3,1.3,0,1,0-2.6,0s0,0,0,.07v1.23H83.21V21.71h1.29a1.3,1.3,0,1,0,0-2.6H83.21v-.63s0,0,0-.07a1.3,1.3,0,0,0-1.3-1.3v8.73Z" transform="translate(0 0)"/><path d="M81.92,10.39A15.49,15.49,0,1,0,97.41,25.88,15.51,15.51,0,0,0,81.92,10.39Zm0,30.54a15,15,0,0,1-15-15s0,0,0,0a15,15,0,0,1,30.08,0s0,0,0,0A15,15,0,0,1,81.92,40.92Z" transform="translate(0 0)"/><path d="M81.92,11.29h0v-.45a15,15,0,0,0-15,15h.45A14.61,14.61,0,0,1,81.92,11.29Z" transform="translate(0 0)"/><path d="M96.51,25.85H97a15,15,0,0,0-15-15v.45A14.61,14.61,0,0,1,96.51,25.85Z" transform="translate(0 0)"/><path d="M81.92,40.47A14.61,14.61,0,0,1,67.33,25.88s0,0,0,0h-.45s0,0,0,0a15,15,0,0,0,15,15v-.45Z" transform="translate(0 0)"/><path d="M96.51,25.85s0,0,0,0A14.61,14.61,0,0,1,81.92,40.47v.45a15,15,0,0,0,15-15s0,0,0,0Z" transform="translate(0 0)"/><path d="M121.36,51.18a1.24,1.24,0,0,0,1.15.09c0-.33.82-.78-.33-.75C122.56,51.29,121.38,50.61,121.36,51.18Z" transform="translate(0 0)"/><path d="M69.51,10.84c.07-.18.35-.24.33-.47a.91.91,0,0,1-.82-.19.34.34,0,0,1-.16.28c.19,0,.46,0,.49.09C68.95,10.57,69.31,10.87,69.51,10.84Z" transform="translate(0 0)"/><path d="M70,10.08c.55.1.25-.29.33-.47-.31,0-.36-.11-.65-.09-.07.21-.38.51.16.57a.36.36,0,0,0-.16-.28c.28,0,.42-.14.49,0C70,9.82,70,9.95,70,10.08Z" transform="translate(0 0)"/><path d="M55.27,48c.32,0,.21.26.65.19-.22-.25-.05-.72-.49-.85C55.56,47.64,55.18,47.68,55.27,48Z" transform="translate(0 0)"/><path d="M50.7,70.31c.42-.09.69-.33,1,0,.11-.38-.88-.62-1.31-.38C50.86,69.84,50.66,70.14,50.7,70.31Z" transform="translate(0 0)"/><path d="M56.08,46.75c-.31,0-.35.07-.16.19h-.49C55.4,47.42,56.23,47.13,56.08,46.75Z" transform="translate(0 0)"/><path d="M57.73,12.34c0-.17.16-.22.49-.19-.09-.14.19-.49-.16-.47C58.36,12.08,57.09,12.06,57.73,12.34Z" transform="translate(0 0)"/><path d="M57.9,14.8c.16-.27.18-.74-.33-.47C58.08,14.44,57.21,14.77,57.9,14.8Z" transform="translate(0 0)"/><path d="M122,49.48c-.13,0-.32,0-.33-.09-.47-.05.25-.15.16-.28a2.74,2.74,0,0,0-1.8.66c.51.24.93-.21,1.47,0-.29,0-.37.16-.33.38-.37,0-.61,0-.65.19a1.38,1.38,0,0,1,.49.19c-.16,0-.2.17,0,.19,0-.44.77-.44,1.15-.66C121.6,50,122.16,49.82,122,49.48Z" transform="translate(0 0)"/><path d="M121.2,48.07c-.17.35.34.31.49.47s-.13.11-.16.19c.49.09.29-.21.33-.38C121.52,48.33,121.41,48.16,121.2,48.07Z" transform="translate(0 0)"/><path d="M94.37,25.26a.57.57,0,0,1,.49.47C94.33,25.76,94,25.48,94.37,25.26Z" transform="translate(0 0)"/><path d="M106.64,48.54c.51,0,.74-.33.49-.47.5,0,.74-.33,1.15-.09,0-.36-.3-.32-.33-.47.08.12-.75,0-.82-.09s.32-.38.65-.47c-.1,0-.19,0-.16-.1s0-.11-.16-.09c0,.2-.72,0-.65.28a2.65,2.65,0,0,0,.49.76.71.71,0,0,1-.65.28C106.54,48.37,106.94,48.36,106.64,48.54Z" transform="translate(0 0)"/><path d="M144.28,47.41c1.08-.64,2.79-1.41,3.27-2.08A18,18,0,0,0,144.28,47.41Z" transform="translate(0 0)"/><path d="M97,48.06h-.82c0,.33.57.3.82.47h.16c.45-.07.33.19.66.19C97.58,48.36,96.94,48.38,97,48.06Z" transform="translate(0 0)"/><path d="M97.16,51.46a1,1,0,0,1,.82,0c.35-.26.89.18,1-.19C98.61,51.12,96.56,51.06,97.16,51.46Z" transform="translate(0 0)"/><path d="M94,64a7.17,7.17,0,0,0,2.13-.1A6.93,6.93,0,0,0,94,64Z" transform="translate(0 0)"/><path d="M94.54,51.46c.15.1.37,0,.65.19-.16-.37.91,0,.82-.38C95.56,51.35,94.48,51.08,94.54,51.46Z" transform="translate(0 0)"/><path d="M95.18,48.35v.76C96.06,49.13,95.45,48.5,95.18,48.35Z" transform="translate(0 0)"/><path d="M91.93,50.33a6.37,6.37,0,0,1-1.15.28v.19a1.67,1.67,0,0,1,.66.09c0-.09.2-.07.33-.09s.24-.24.33-.38C92,50.44,91.93,50.39,91.93,50.33Z" transform="translate(0 0)"/><path d="M90.45,71.16c.31,0,.7,0,.65-.28v-.09h-.65Z" transform="translate(0 0)"/><path d="M94.54,54.85H93.4C93.43,55.27,94.42,55.12,94.54,54.85Z" transform="translate(0 0)"/><path d="M116.29,43.73c.77-.1.74.27,1,.47a1.06,1.06,0,0,0,.49-.85c0,.13.29.09.33.19-.14.5.4,0,.49.38-.16,0-.21.16,0,.19,0-.26.68-.54.16-.75,0,.16-.13.24-.33.28,0-.09-.13-.11-.16-.19s.38-.45,0-.47-.1.19-.33.28-.93,0-.49-.47c-.87.11.11.5-1,.28-.26.37.71,0,.65.28C117.26,43.67,115.94,43.62,116.29,43.73Z" transform="translate(0 0)"/><path d="M118.25,42.51c-.31,0-.36.11-.65.09.07.18.06.4.49.38C118,42.71,118.32,42.74,118.25,42.51Z" transform="translate(0 0)"/><path d="M109.91,46c-.42.34-.22.71.16,1,.34-.35-.24-.25-.16-.66.39.06.76.14.82-.19C110.16,46.34,110.15,46.22,109.91,46Z" transform="translate(0 0)"/><path d="M115.47,44c.49,0,.34-.72.82-.47,0-.25.06-.47-.49-.38.33.53-.48.41-.82.57C115.36,43.7,115.16,44,115.47,44Z" transform="translate(0 0)"/><path d="M113.83,47.88c-.78.07-.9-.06-1.31.19.5-.12.89.44,1.47.19C113.54,48.17,114.24,48,113.83,47.88Z" transform="translate(0 0)"/><path d="M110.89,51.93c.74,0,.47-.28.65-.47-.1,0-.63-.23-.65,0C111.3,51.53,110.35,51.74,110.89,51.93Z" transform="translate(0 0)"/><path d="M110.89,48.82a4.48,4.48,0,0,1,2.62-.09c.27-.43-.79-.3-1-.19-.26-.18.15-.32-.33-.47a1.35,1.35,0,0,1-1,.38c.12-.32-.34-.31-.49-.47C110.77,48.35,110.31,48.64,110.89,48.82Z" transform="translate(0 0)"/><path d="M120.22,48.45c0-.24-.25-.3-.49-.38a.26.26,0,0,0,0,.47A1.2,1.2,0,0,0,120.22,48.45Z" transform="translate(0 0)"/><path d="M34.84,81v0S34.87,81.06,34.84,81Z" transform="translate(0 0)"/><path d="M33.32,77.72a1,1,0,0,0,0-.17C33.5,77.53,33.43,77.61,33.32,77.72Zm.2.17c-.1-.07-.18-.12,0-.14C33.52,77.8,33.53,77.85,33.52,77.89Zm-2.95-.51c-.55.06-.6-.16-.65-.38Q30.47,77.06,30.58,77.38Z" transform="translate(0 0)"/><path d="M42.35,55.7a14.08,14.08,0,0,1,3.11.09c0-.07,0-.19.16-.19,1,.07,2.11-.12.49-.09A13.21,13.21,0,0,0,42.35,55.7Z" transform="translate(0 0)"/><path d="M110.73,47.13c-.21.17-1.61.13-1.15.38,0-.21.41.12.82,0C110.28,47.25,110.72,47.31,110.73,47.13Z" transform="translate(0 0)"/><path d="M112.2,87.75c.22,0,.15-.16.33-.19.13-.36-.87-.18-.65.09C112.06,87.64,112.16,87.68,112.2,87.75Z" transform="translate(0 0)"/><path d="M114.65,43c-.1.31-.4-.13-1.31,0,0,.38.64.38.65.75h.16c0-.23.55,0,.65,0C114.72,43.51,115,43,114.65,43Z" transform="translate(0 0)"/><path d="M24.2,50.23c.52.08.69.35,1.31.38-.11-.26.34-.18.49-.28v.28h.82c0-.18.19-.21.16-.38a1.41,1.41,0,0,1-.49-.19A1.24,1.24,0,0,0,27,50c0,.07,0,.18.16.19s.26-.1.49-.09c.08-.12.41-.56.16-.57-.5.45-1.87.15-1.8.66-.25-.34-1-.14-1.31,0,0-.18.19-.21.16-.38-.41,0-.51-.18-.65.09C25,49.9,24.07,50,24.2,50.23Z" transform="translate(0 0)"/><path d="M111.22,44.77c.12-.29.12-.18,0-.47-.52-.08-.51.14-.65.28C110.8,44.63,111,44.72,111.22,44.77Z" transform="translate(0 0)"/><path d="M111.71,47.79q0-.31-.49-.28c0,.18-.18.21-.16.38C111.36,47.9,111.41,47.77,111.71,47.79Z" transform="translate(0 0)"/><path d="M111.55,46.75c-.46.08-.42-.13-.82-.09.09.4.57.22.49.66C112,47.31,111.53,47,111.55,46.75Z" transform="translate(0 0)"/><path d="M109.1,54.1V54c0-.08.16-.09.16-.19-.21.13-.77.06-1,.19A.94.94,0,0,0,109.1,54.1Z" transform="translate(0 0)"/><path d="M109.74,51c.1-.32.38.26-.16.1v.19c.16,0,.2.08.33.09.22-.14.33-.75-.16-.76C109.9,50.79,109.26,50.93,109.74,51Z" transform="translate(0 0)"/><path d="M109.6,52.31v.09a.7.7,0,0,0,.65.28C110.41,52.31,109.89,52.14,109.6,52.31Z" transform="translate(0 0)"/><path d="M154.74,72.67v-.28c-.39.13-1.15-.05-.82.19C154.07,72.32,154.22,72.83,154.74,72.67Z" transform="translate(0 0)"/><path d="M156.37,113.38c.27,0,.28-.09.49-.09a1.21,1.21,0,0,1,.49-.1.34.34,0,0,0,.16-.28C157,113,156.52,113.09,156.37,113.38Z" transform="translate(0 0)"/><path d="M151.64,85.29c-.2.17-.51.27-.65.47-.78,0-.86-.16-1.47.09.74-.06,1.4.26,2,0,0,.21.13.3.49.28.59-.07,2.08-.32,2.13.09-.23-.54,1.11-.18,1-.66-.56.16-1-.1-1.64.09a7.86,7.86,0,0,1-.82-.38c-.1-.36.65-.9,0-.75.1,0,.19,0,.16.09s-.44.19-.65.28c0,.34.3.45.33.75-.21,0-.23.12-.49.09C151.57,85.58,152.24,85.36,151.64,85.29Z" transform="translate(0 0)"/><path d="M138.87,28.09h-.49c0,.26.52.27.65.47A.43.43,0,0,0,138.87,28.09Z" transform="translate(0 0)"/><path d="M137.56,35.82c.13,0,.32,0,.33.09H138c.05-.13.23-.18.16-.38C137.78,35.51,137.51,35.57,137.56,35.82Z" transform="translate(0 0)"/><path d="M137.9,42.31c.12-.22.38-.6-.33-.56A.61.61,0,0,0,137.9,42.31Z" transform="translate(0 0)"/><path d="M138.21,48.35c.24-.29,0-.36-.33-.56C137.88,48.09,137.54,48.29,138.21,48.35Z" transform="translate(0 0)"/><path d="M137.74,43h.16c.05-.22.35-.41-.16-.47C137.49,42.68,137.3,42.82,137.74,43Z" transform="translate(0 0)"/><path d="M148.7,45a1.33,1.33,0,0,1,.22-.26C148.75,44.73,148.68,44.82,148.7,45Z" transform="translate(0 0)"/><path d="M149.19,44.67a25.19,25.19,0,0,1,2.95-1.79v-.09a12.74,12.74,0,0,0-3.22,1.91A.94.94,0,0,1,149.19,44.67Z" transform="translate(0 0)"/><path d="M82.44,150.51a4.25,4.25,0,0,0,1-.28C83,150,82.4,150.2,82.44,150.51Z" transform="translate(0 0)"/><path d="M153.44,87.27c-.29.14-1,.64-.33.76C152.79,87.58,153.88,87.47,153.44,87.27Z" transform="translate(0 0)"/><path d="M83.58,98.11c-.73,0-.47.28-.65.47.1,0,.63.23.65,0C83.18,98.51,84.12,98.3,83.58,98.11Z" transform="translate(0 0)"/><path d="M80.64,102.17c.78-.08.9.06,1.31-.19-.5.12-.89-.44-1.47-.19C80.93,101.88,80.24,102,80.64,102.17Z" transform="translate(0 0)"/><path d="M137.74,38.26v.85c.14.51.21-.28.16-.47v-.09C137.91,38.41,137.93,38.28,137.74,38.26Z" transform="translate(0 0)"/><path d="M152.12,94.35a14.22,14.22,0,0,1-3.11-.09c0,.07,0,.18-.16.19-1-.07-2.1.12-.49.09A13.21,13.21,0,0,0,152.12,94.35Z" transform="translate(0 0)"/><path d="M83.58,101.22a4.5,4.5,0,0,1-2.62.09c-.27.43.79.3,1,.19.26.17-.15.32.33.47a1.33,1.33,0,0,1,1-.38c-.11.32.34.31.49.47C83.7,101.7,84.16,101.41,83.58,101.22Z" transform="translate(0 0)"/><path d="M72.13,140.43c.41,0,.79,0,.82-.19-.34,0,0-.42-.49-.38C72.31,140,72,140.11,72.13,140.43Z" transform="translate(0 0)"/><path d="M90,71.25c.1-.23.33-.49-.33-.47C89.71,71,89.41,71.35,90,71.25Z" transform="translate(0 0)"/><path d="M90,86.24c-.24-.36.73,0,.49-.38h-.16c-1.37,0-3.35-.13-4.91-.19C86.69,86.23,88.72,85.69,90,86.24Z" transform="translate(0 0)"/><path d="M97.8,45.9c.31,0,.11.31.49.28s-.06-.6.33-.66c.12.15.8,0,.65.28-.09,0-.19.08,0,.09.22-.22.81-.22.65-.66-.47-.14-.51,0-1.15-.09-.15.26-.82.22-.82.57-.59.09-.23-.37-.33-.57h.82c.06-.32-.28-.4-.49-.56-.55.22-.33.88-1,1,.29.25,0,.47,0,.75A1.92,1.92,0,0,0,97.8,45.9Z" transform="translate(0 0)"/><path d="M92.57,29.31c0-.62-1.7-.23-2.13,0C91.36,29.28,91.84,29,92.57,29.31Z" transform="translate(0 0)"/><path d="M135.93,40.43c.22.53,0,1.8.33,1.88C136.18,41.7,136.82,40.79,135.93,40.43Z" transform="translate(0 0)"/><path d="M99.94,54.57c.07-.27,1,.24,1.15-.09C100.69,54.41,99.55,54.3,99.94,54.57Z" transform="translate(0 0)"/><path d="M136.1,44.58v1C136.43,46.07,136.32,43.52,136.1,44.58Z" transform="translate(0 0)"/><path d="M135.61,50.33c.58.65.37-1-.16-.28.28,0,.31.07.33.19h-.16Z" transform="translate(0 0)"/><path d="M137.89,28.09c-.21,0-.23-.12-.49-.09-.05.13-.23.18-.16.38C137.66,28.4,137.93,28.34,137.89,28.09Z" transform="translate(0 0)"/><path d="M135.28,41.75V42a.41.41,0,0,0,.33.38c.25-.33-.09-.42.16-.76C135.51,41.63,135.49,41.75,135.28,41.75Z" transform="translate(0 0)"/><path d="M135.28,44.67v.09c.28,0-.15.29.33.38.2-.39,0-.84.16-1V44c-.52-.08.32-.94-.65-.75A1.06,1.06,0,0,1,135.28,44.67Z" transform="translate(0 0)"/><path d="M136.26,39.11c.22-.49-.65-.6-.65-.28C136.13,38.75,135.95,39.07,136.26,39.11Z" transform="translate(0 0)"/><path d="M135.61,39.21c-.23.35,0-.28-.33-.19v.28c0,.23,0,.45-.16.57C135.38,41,135.88,39.46,135.61,39.21Z" transform="translate(0 0)"/><path d="M130.69,50.52c0,.07-.14.11-.33.09.14.23.15.54.65.57,0-.18-.22-.19-.33-.28C130.73,50.84,131.09,50.53,130.69,50.52Z" transform="translate(0 0)"/><path d="M135.93,30.16h.16c.6-.15.16-.51-.16-.66Z" transform="translate(0 0)"/><path d="M135.93,28.46v.94C136.1,29.19,136.4,28.46,135.93,28.46Z" transform="translate(0 0)"/><path d="M81.93,72.67c.19,0,.29,0,.33.09h.33c.25-.22,1,.36,1.47,0-.52.08-.51-.15-.82-.19h-.33C82.63,72.63,82,72.46,81.93,72.67Z" transform="translate(0 0)"/><path d="M82.26,37.7a1.17,1.17,0,0,1-.49-.09c.42.29-.6.62,0,.76.06-.46.17.14.49.09C82.41,38.1,82,37.86,82.26,37.7Z" transform="translate(0 0)"/><path d="M81.62,76.9c0-.43-.83-.08-1-.28h-.16C79.51,77,81.29,76.74,81.62,76.9Z" transform="translate(0 0)"/><path d="M84.73,99.05c-.1.32-.38-.26.16-.09v-.19c-.16,0-.2-.08-.33-.09-.22.14-.33.75.17.75C84.57,99.26,85.22,99.12,84.73,99.05Z" transform="translate(0 0)"/><path d="M84.88,97.74v-.09a.71.71,0,0,0-.66-.28C84.06,97.73,84.58,97.91,84.88,97.74Z" transform="translate(0 0)"/><path d="M85.37,95.95V96c0,.08-.16.09-.16.19.21-.13.77-.06,1-.19A.94.94,0,0,0,85.37,95.95Z" transform="translate(0 0)"/><path d="M85.22,49.39c.06-.23-1.31-.41-1.15-.09S84.88,49.33,85.22,49.39Z" transform="translate(0 0)"/><path d="M81.28,84.36c-.07.16-.21,0-.49,0,0,.49-.68.55-1.15.75C80.52,85.11,81.51,84.68,81.28,84.36Z" transform="translate(0 0)"/><path d="M86.36,149.57c-1.23-.12-1.48.57-2.29.19.12.29-.45.18-.33.47,1,0,1.18-.43,2.13-.19C85.71,149.7,86.67,150,86.36,149.57Z" transform="translate(0 0)"/><path d="M81.93,96.33a.85.85,0,0,1,1.31-.38h.16c.38-.27-.68-.31-.49-.76-.34.09-.5.28-.49.57-.8.09-1.16-.12-1.47.19,0,.26,1-.08,1,.19-.29.12-1,0-1.15.19Z" transform="translate(0 0)"/><path d="M75.07,125.35c-.17.09,0,.35-.49.28a.09.09,0,0,0-.16,0c.23,0,.19.21.33.28a1.6,1.6,0,0,1,1,.19C75.58,125.82,75.22,125.64,75.07,125.35Z" transform="translate(0 0)"/><path d="M82.44,151c.31.18.3-.06.82,0a.09.09,0,0,0,.16,0c-.13,0-.19-.08-.16-.19A1.12,1.12,0,0,0,82.44,151Z" transform="translate(0 0)"/><path d="M78.84,150.42a8.24,8.24,0,0,0,1.47-.19c-.56,0-.53-.33-1-.38-.16.18.49.31,0,.38l-.49-.28C78.93,150.25,78.53,150.24,78.84,150.42Z" transform="translate(0 0)"/><path d="M92.74,107.82c-.26,0-.28-.09-.49-.09-.12-.26.33-.19.33-.38C92.94,107.33,92.66,107.68,92.74,107.82Z" transform="translate(0 0)"/><path d="M99,54.57a1.17,1.17,0,0,0-1,.09C98.34,54.7,98.87,54.88,99,54.57Z" transform="translate(0 0)"/><path d="M97.48,94.53c-.24.05-.85-.11-.82.09.19,0,.18.15.16.28-1.54-.12-5.12.12-1.47.09,0,.09-.13.11-.16.19a8,8,0,0,1,2.78,0C97.92,94.8,96.74,95,97.48,94.53Z" transform="translate(0 0)"/><path d="M97,55.51c.24-.05.84.11.82-.09-.19,0-.18-.15-.16-.28,1.54.12,5.12-.12,1.47-.09,0-.1.13-.11.16-.19a8,8,0,0,1-2.78,0C96.56,55.25,97.73,55,97,55.51Z" transform="translate(0 0)"/><path d="M95.51,95.48a1.15,1.15,0,0,0,1-.09C96.13,95.34,95.6,95.17,95.51,95.48Z" transform="translate(0 0)"/><path d="M96.65,83.88c-.58.22-.82.07-1.8.09h-.16c0,.09-.13.11-.16.19H95c.27-.27.89,0,1.15.1C96,84,96.7,84.13,96.65,83.88Z" transform="translate(0 0)"/><path d="M103.2,47c-.3-.18-1.23-.44-.49-.66-.64.15-.34-.24-.65-.28,0,.15-.11,1,.16,1.23.38-.36.24.35.65.28.22-.41-.39-.34-.49-.57.21,0,.23-.12.49-.09-.15.34,1.08.21,1,0-.37-.07,0-.54-.65-.47-.14.44.26.1.33.28S103.4,47,103.2,47Z" transform="translate(0 0)"/><path d="M101.07,44.77a4.26,4.26,0,0,1,1.15.19C102.56,44.54,101.19,44.62,101.07,44.77Z" transform="translate(0 0)"/><path d="M100.58,45.62c.31,0,.36-.11.65-.09v.66c.69.07-.22-.36.49-.38.37.05,1.08.32,1.14,0-.75.12-.26-.48-.65-.57,0,.24-.3.33-.49.47-.31-.17-.2-.58-.66-.66C100.92,45.25,100.74,45.43,100.58,45.62Z" transform="translate(0 0)"/><path d="M99.93,98.59c-.15-.11-.37,0-.65-.19.16.37-.91,0-.82.38C98.91,98.69,100,99,99.93,98.59Z" transform="translate(0 0)"/><path d="M100.58,47.41c.74-.15.77.33.65.75a3,3,0,0,1,1.47-.28,2.19,2.19,0,0,0-2-.94C101.34,47.11,100.46,47.2,100.58,47.41Z" transform="translate(0 0)"/><path d="M94.53,95.48c-.06.27-1-.24-1.15.1C93.78,95.63,94.93,95.75,94.53,95.48Z" transform="translate(0 0)"/><path d="M100.09,47c-.06-.22-.1-.44-.65-.38C99.36,47,99.58,47.08,100.09,47Z" transform="translate(0 0)"/><path d="M95.36,86.14a8,8,0,0,1,1.8.09C97,85.9,95.62,85.85,95.36,86.14Z" transform="translate(0 0)"/><path d="M97.31,98.59a1,1,0,0,1-.82,0c-.35.26-.89-.18-1,.19C95.86,98.92,97.91,99,97.31,98.59Z" transform="translate(0 0)"/><path d="M92.91,86c.68,0,1.88.19,2.29-.09H92.91C92.31,85.89,92.31,86.12,92.91,86Z" transform="translate(0 0)"/><path d="M100.43,86a7.26,7.26,0,0,0-2.13.09A6.9,6.9,0,0,0,100.43,86Z" transform="translate(0 0)"/><path d="M98.14,143.16c-.14.23-.25.61.33.66C98.41,143.58,98.39,143.31,98.14,143.16Z" transform="translate(0 0)"/><path d="M76.7,69.46c-.31,0-.36.11-.65.09-.19.28.69.4.82.19C76.23,69.76,76.8,69.67,76.7,69.46Z" transform="translate(0 0)"/><path d="M75.89,70.59c.15.1.6,0,.49.28v.19c.13-.08.45-.05.49-.19-.86-.72-2.69-.56-3.43-.66C72.59,70.82,75.71,70.89,75.89,70.59Z" transform="translate(0 0)"/><path d="M73.6,71.25c.9.11.9-.3,1.8-.19V71a4.17,4.17,0,0,0-2,0C73.63,71,73.58,71.14,73.6,71.25Z" transform="translate(0 0)"/><path d="M73.44,99.34c0,.44-.77.44-1.15.66.58.08,0,.23.16.57.13,0,.32,0,.33.09.47.05-.25.15-.16.28a2.71,2.71,0,0,0,1.8-.66c-.51-.24-.93.21-1.47,0,.29,0,.37-.16.33-.38.37,0,.62,0,.65-.19a1.35,1.35,0,0,1-.49-.19C73.6,99.53,73.64,99.36,73.44,99.34Z" transform="translate(0 0)"/><path d="M71.79,9.71a1.56,1.56,0,0,0,1-.28C72.34,9.33,71.7,9.28,71.79,9.71Z" transform="translate(0 0)"/><path d="M77,76.53c-.12.14-1.76.05-1.47.38h.16c.26-.23,1.14,0,1.47,0C77.19,76.76,77.28,76.54,77,76.53Z" transform="translate(0 0)"/><path d="M95,50c.38-.16.7-.69.16-.85-.09.17.2.55-.16.57s-.16-.41-.16-.66c-.86.06,0,.54-.49.75-.15-.08-.91-.47-.82-.09C93.91,49.72,94.35,50,95,50Z" transform="translate(0 0)"/><path d="M98.46,48.54c.1-.34.88-.11,1,.09a.39.39,0,0,1-.16.38c.26,0,.84.32,1,.09h-.33c.21-.49-.34-.56-.33-.94C98.81,48.07,98,48.12,98.46,48.54Z" transform="translate(0 0)"/><path d="M92.08,90.67c.29,0,.35-.11.65-.09h.33v-.09c-.39,0-.35-.18-.82-.1C92.28,90.54,92.09,90.55,92.08,90.67Z" transform="translate(0 0)"/><path d="M47.1,123.75c.19.26.85,0,1.14,0C48.21,123.42,47,123.58,47.1,123.75Z" transform="translate(0 0)"/><path d="M45.46,123c-.54.74-2.42.19-3.6.76-.48-.14-.61.11-.82-.19.13,0,.32,0,.33-.09-.31,0-.41-.2-.82-.19.51.51-.49.78.16,1,.1-.15,1.47-.69,2-.28a13.88,13.88,0,0,1,3.11-.47A.62.62,0,0,0,45.46,123Z" transform="translate(0 0)"/><path d="M51.83,46.28c-.16,0,.08-.56-.49-.28-.07.23.3.21.16.47h-.16c.11.54,0,.57-.33.94v.28h.49c-.34.35.24.25.16.66.33-.13,0-.62.82-.47-.07-.28-.35-.43-.82-.47.15-.27.15-.29,0-.57h.16Z" transform="translate(0 0)"/><path d="M50,48.45h.82c-.13-.32.31-.4,0-.56h-.33A.9.9,0,0,0,50,48.45Z" transform="translate(0 0)"/><path d="M52.81,59.76c.69-.09.4-.52.33-.85a1.59,1.59,0,0,0-1,.19C52.42,59.29,52.31,59.7,52.81,59.76Z" transform="translate(0 0)"/><path d="M52.81,46.18c0,.06,0,.11.16.1.18-.25.59-.35.65-.66-.53,0-.46.43-1,.47C52.75,46.1,52.84,46.1,52.81,46.18Z" transform="translate(0 0)"/><path d="M49.06,55.42a4.21,4.21,0,0,1-1.17,0,1.23,1.23,0,0,1,0-.23.66.66,0,0,0-.34.26c-.05,0-.07.05,0,.11a1,1,0,0,0,.22.76c.2-.14.19-.41.17-.68l.59,0h-.1c-.13.27-.47,1.1,0,1.13-.06-.48.47-.61.82-.85V55.8c-.39.07-.43-.07-.67-.09.74,0,1.59.07,1.5-.19-.21.1-.6.09-.82.19A.34.34,0,0,0,49.06,55.42Z" transform="translate(0 0)"/><path d="M144.92,69.09v.19l.19,0,0,0c.39,0,1.87.08,1.47-.09m-1.15,0-.16,0" transform="translate(0 0)"/><path d="M159.33,110.55a1.09,1.09,0,0,0-.16.75v.09C159.74,111.47,159.55,110.62,159.33,110.55Z" transform="translate(0 0)"/><path d="M159.33,114.51v-.57c-.11-.79.22-1.82-.16-2.45v.38C159.09,113,158.81,113.5,159.33,114.51Z" transform="translate(0 0)"/><path d="M158.84,108.39c1,.66-.13,1.57.65,2.07.13-.85-.31-1.53.49-1.88-.58,0,0-.18-.49-.28.33-.08.64-.53.33-.85-.71.14-.32.56-.49.85h-.49Z" transform="translate(0 0)"/><path d="M153.44,42c-.39,0-1,.33-.65.47C152.91,42.29,153.41,42.3,153.44,42Z" transform="translate(0 0)"/><path d="M154.9,37.23c-.92,0-.28.7.16.75C154.84,37.62,155.15,37.5,154.9,37.23Z" transform="translate(0 0)"/><path d="M158.84,105.27a.91.91,0,0,0,.33.75c0-.16.12-.24.33-.28-.54.6,0,1.15-.16,1.7.45.07.33-.19.65-.19v-.09c0-.24-.12-.11-.33-.09.38-.1-.08-.67.33-.75.24,0,.06.28.33.28.09-.26.24-.49.33-.75-.53-.09-.34.24-.65.28-.18-.36.43-.59-.16-.66,0,.13,0,.27-.16.28V105C159,105,159.63,105.57,158.84,105.27Z" transform="translate(0 0)"/><path d="M160.62,33.55h-.49c-.41.34-.34.71.33.85C160.87,34.12,160.6,34,160.62,33.55Z" transform="translate(0 0)"/><path d="M162.44,52.78a24.14,24.14,0,0,0-.65,4.71c.68-.49.3-1.15.49-1.79v-.38C162.21,54.24,162.52,53.91,162.44,52.78Z" transform="translate(0 0)"/><path d="M156.71,40.15v-.09c.69-.62-1.2.53-1.47.85C155.91,40.76,156.08,40.32,156.71,40.15Z" transform="translate(0 0)"/><path d="M155.55,32q-.11.44.65.38c0-.18.19-.21.16-.38A1,1,0,0,0,155.55,32Z" transform="translate(0 0)"/><path d="M158.66,32.61a.36.36,0,0,0-.16-.28,1.66,1.66,0,0,0-.82.28A1.31,1.31,0,0,0,158.66,32.61Z" transform="translate(0 0)"/><path d="M157.84,35.91c-.13-.48,1-.24,1.15-.57a5.48,5.48,0,0,1-.82-.28C158.06,35.32,157.14,35.76,157.84,35.91Z" transform="translate(0 0)"/><path d="M161.78,57.59c.24.31-.45.82.16.75C161.75,58,162.38,57.65,161.78,57.59Z" transform="translate(0 0)"/><path d="M135.28,103.67c-.38-.18.4-.89-.33-1,0,.07-.14.11-.33.09C135.06,102.93,134.64,103.78,135.28,103.67Z" transform="translate(0 0)"/><path d="M137.39,78.89a3.44,3.44,0,0,0-1.14.19C136.62,79,137.52,79.25,137.39,78.89Z" transform="translate(0 0)"/><path d="M134.46,118.56c-.17.1-.34.67,0,.76C134.27,119,135,118.74,134.46,118.56Z" transform="translate(0 0)"/><path d="M136.1,66.92c-.14-.28.22-1,.33-.57h.16" transform="translate(0 0)"/><path d="M138.06,78.13v-.19c-.45.07-.33-.19-.65-.19v.09C137.36,78.1,137.63,78.16,138.06,78.13Z" transform="translate(0 0)"/><path d="M134.14,121c0-.14.4-.09.65-.1-.34-.35.24-.24.16-.66-.55,0-.26.42-1,.28C134.27,120.72,133.82,121.21,134.14,121Z" transform="translate(0 0)"/><path d="M145.41,94.63a4.31,4.31,0,0,1,1.17,0,1.1,1.1,0,0,1,0,.23.68.68,0,0,0,.34-.26c.06,0,.07-.06,0-.11a1,1,0,0,0-.22-.76c-.2.15-.19.41-.17.68l-.59,0h.11c.13-.27.47-1.1,0-1.13.06.48-.47.61-.82.85v.19c.39-.06.43.08.67.1-.75,0-1.6-.07-1.5.19.22-.09.6-.09.82-.19A.34.34,0,0,0,145.41,94.63Z" transform="translate(0 0)"/><path d="M124.14,49.11c0-.06.41-.36,0-.38-.07.45-.06-.11-.49,0C123.62,49,123.9,49,124.14,49.11Z" transform="translate(0 0)"/><path d="M126.1,51.84c-.21,0-.23-.12-.49-.09s-.25.46.16.47C125.78,52,126.22,52.1,126.1,51.84Z" transform="translate(0 0)"/><path d="M126.1,50.43c-.07.18-.63.07-.49.38.52.06.5-.18.82,0A.41.41,0,0,0,126.1,50.43Z" transform="translate(0 0)"/><path d="M134.12,40.53v-.47c-.13,0-.16-.09-.33-.09C132.94,40.11,133.15,40.85,134.12,40.53Z" transform="translate(0 0)"/><path d="M124.47,46.84c.4,0,.36-.17.82-.09-.06-.25-.43-.32-.82-.38Z" transform="translate(0 0)"/><path d="M125.29,40c-.51,0-.46.24-.65.38.75,0,.38.4.33.57C125.71,40.78,125.32,40.16,125.29,40Z" transform="translate(0 0)"/><path d="M124.63,30.63a1.43,1.43,0,0,0,1-.09C125.25,30.5,124.73,30.32,124.63,30.63Z" transform="translate(0 0)"/><path d="M141.66,90.29c-.69.09-.4.52-.33.85a1.63,1.63,0,0,0,1-.19C142.05,90.75,142.17,90.34,141.66,90.29Z" transform="translate(0 0)"/><path d="M125.46,92.27h.33c.3-.09.55.28.65,0C126.32,92.19,125.44,91.85,125.46,92.27Z" transform="translate(0 0)"/><path d="M127.59,117.34c-.59-.06-.64.2-.65.47C127.4,117.79,127.63,117.65,127.59,117.34Z" transform="translate(0 0)"/><path d="M125.94,79.74c-.07-.24,1.28-.13.82-.28S125.58,79.49,125.94,79.74Z" transform="translate(0 0)"/><path d="M110.56,14a3.89,3.89,0,0,0,1.47-.19C111.58,13.85,110.5,13.57,110.56,14Z" transform="translate(0 0)"/><path d="M126.6,79.17c.07.21.8,0,1.15.09a.39.39,0,0,1,.16-.38C127.34,79,126.7,78.95,126.6,79.17Z" transform="translate(0 0)"/><path d="M122.68,69.55c.1.5.75.12,1.31.28-.21-.24.08-.3-.16-.38C123.76,69.67,123,69.5,122.68,69.55Z" transform="translate(0 0)"/><path d="M119.25,133.65c-.46,0,.41-.35-.16-.38-.25.32-.68-.05-.82.28.33,0,.44.19.65.28C118.92,133.71,119.21,133.75,119.25,133.65Z" transform="translate(0 0)"/><path d="M140.19,49.86a.43.43,0,0,1,.33-.19,4.86,4.86,0,0,1,1.47-.75c-1-.24-1.39.71-2.13.94C139.93,50,140,49.84,140.19,49.86Z" transform="translate(0 0)"/><path d="M143,48c-.19.21-1.27.79-1,.66C142.64,48.66,143.08,48.07,143,48Z" transform="translate(0 0)"/><path d="M117.94,133.08c.32.26,1.66,0,1-.28C119,133.12,118,132.85,117.94,133.08Z" transform="translate(0 0)"/><path d="M123.17,120.26A.34.34,0,0,0,123,120c-.07-.12-.21-.19-.49-.19C122.16,120,122.57,120.32,123.17,120.26Z" transform="translate(0 0)"/><path d="M120.07,119.79h.16a5.54,5.54,0,0,0,2.13-.56C121.38,119,120,118.94,120.07,119.79Z" transform="translate(0 0)"/><path d="M101.25,142.41a3.12,3.12,0,0,0-1.64.1A2.82,2.82,0,0,0,101.25,142.41Z" transform="translate(0 0)"/><path d="M70.33,101.32c.07-.45.06.11.49,0,0-.24-.25-.29-.49-.38C70.28,101,69.92,101.3,70.33,101.32Z" transform="translate(0 0)"/><path d="M104.34,46.18v.28H105c.29-.31-.21-.56,0-.38C104.86,46.37,104.76,46.2,104.34,46.18Z" transform="translate(0 0)"/><path d="M96.82,47.41c.23-.12.07-.46.49-.47a.42.42,0,0,0,.16.47h.65a1.16,1.16,0,0,0-1-.76C97.27,47,96.28,47.16,96.82,47.41Z" transform="translate(0 0)"/><path d="M105.06,47.05l.12,0v-.09a2.14,2.14,0,0,1-.49-.38h-.16c0,.1-.32.06-.33.19.74-.06.38.16.33.38a.89.89,0,0,0,.32,0c0,.17.28.22.49.3-.25-.33.56-.06.49-.28A1.77,1.77,0,0,1,105.06,47.05Z" transform="translate(0 0)"/><path d="M72,98.77c0,.34-.83.78.33.75-.38-.77.8-.09.82-.66A1.24,1.24,0,0,0,72,98.77Z" transform="translate(0 0)"/><path d="M96,46.28c-.22,0-.13.23-.16.37,0-.3-.68-.24-1-.37-.44.23-.07.65-.82.85v.09c.24.11.22.38.65.38-.34.57,0,.53,0,1.32.66-.42-.13-1.38.42-2-.07.14,0,.38.23.49.43-.35.63-.83,1.47-.94C96.61,46.17,96.48,46.42,96,46.28Z" transform="translate(0 0)"/><path d="M106.64,44c0-.13.55-.35.16-.38,0,.22-.72.05-.82,0-.17.12-.16.35-.33.47C106.16,44,106,43.85,106.64,44Z" transform="translate(0 0)"/><path d="M121.69,41.66a2.09,2.09,0,0,0,1.15.38c.36-.65.56-.6.49-.94V41c0-.22-.47-.11-.49-.28h-.33C122.27,41,121.28,41.28,121.69,41.66Z" transform="translate(0 0)"/><path d="M124,31.39c.19.3-.26.23-.33.38.73,0,.72.62,1.31.19-.73,0-.42-.33-.16-.47A1.71,1.71,0,0,0,124,31.39Z" transform="translate(0 0)"/><path d="M99.62,144.29c0-.14.61-.39.16-.47-.05.22-.51.21-.65.38A1.2,1.2,0,0,1,99.62,144.29Z" transform="translate(0 0)"/><path d="M20.42,122h.49v-.28c-.13,0-.16-.09-.33-.09A.38.38,0,0,0,20.42,122Z" transform="translate(0 0)"/><path d="M19.94,77.75a1.22,1.22,0,0,0-1.15.19c.72-.09.43,0,1,.09A.34.34,0,0,1,19.94,77.75Z" transform="translate(0 0)"/><path d="M20.43,81.05c0,.28.06.53.65.47C21,81.29,20.7,81.18,20.43,81.05Z" transform="translate(0 0)"/><path d="M35.3,50.33c0-.22-.44.1-.49.19-.47-.46.22-.89-.16-1.32-.41.6,0,2-.33,2.64v2.54c.42-.47,0-1.67.33-1.88v-.09a.77.77,0,0,1,.49-.28C34.28,52.09,34.65,50.61,35.3,50.33Z" transform="translate(0 0)"/><path d="M34.81,45.71c-.11.21-.49.47-.16.66-.29.18-.51-.13-.65.19.8-.18.24.57.65.85-.2-.43.57-.3.65-.57C34.57,46.8,35.32,45.9,34.81,45.71Z" transform="translate(0 0)"/><path d="M34.32,54.76V57.4h.16a6.26,6.26,0,0,0,0-1.6C34.47,55.31,34.57,54.22,34.32,54.76Z" transform="translate(0 0)"/><path d="M34.16,46.84c-.51-.11-.4.15-.65.19v.09c.13,0,.16.09.33.09S34.35,47.14,34.16,46.84Z" transform="translate(0 0)"/><path d="M33.83,59.85c.11,1.51.23-.67.16-1.23V58c-.49-.42,0,1.21-.16,1.79Z" transform="translate(0 0)"/><path d="M32.38,55.6c-.69-.07-1.28.2-2,0C30.67,55.91,32.24,56,32.38,55.6Z" transform="translate(0 0)"/><path d="M29.59,49.48c-.31.17-1,.14-1.14.38a15.17,15.17,0,0,0,4.09-.09C31.59,49.48,30.37,50,29.59,49.48Z" transform="translate(0 0)"/><path d="M29.25,64.47a4.86,4.86,0,0,1,1.47,0C30.57,64.09,29.09,64.36,29.25,64.47Z" transform="translate(0 0)"/><path d="M32.69,92.46c-.24-.32.45-.82-.16-.75C32.72,92.09,32.09,92.4,32.69,92.46Z" transform="translate(0 0)"/><path d="M27.94,112.25a.39.39,0,0,0-.16.38v.09C28.29,112.93,28,110.87,27.94,112.25Z" transform="translate(0 0)"/><path d="M27.29,116.4c.43,0,.71-.06.65-.56v-2.45c-.57.58.34,2-.49,2.45C27.81,116,27.49,116.25,27.29,116.4Z" transform="translate(0 0)"/><path d="M34.49,111.88c-.06.13-.29.15-.33.28-.2.14-.73.58-1,.37a1.56,1.56,0,0,1-.65.66c-.46-.09.24-.25-.16-.37-.49.19.12.72-.49.66-.11-.6.22-1.44-.16-1.88V114c.09.17-.2.55.16.57v-.94c.12-.17.3,0,.49,0,.42,0-.22-.16,0-.38a47.19,47.19,0,0,0,4.74-2.83C36,110.82,35.53,111.5,34.49,111.88Z" transform="translate(0 0)"/><path d="M25.82,64.37a1.68,1.68,0,0,0,.82.1C26.7,64.18,25.85,64.09,25.82,64.37Z" transform="translate(0 0)"/><path d="M28.76,65.13c-.24,0-.28-.15-.49-.19.2.17,0,.55.33.66C28.53,65.37,28.9,65.4,28.76,65.13Z" transform="translate(0 0)"/><path d="M30.58,47.69a1.43,1.43,0,0,0-.16-.94c-.6-.06-.2.45-.65.47h-.16a1.45,1.45,0,0,1-.49.19v.38c-.14.17-.55.29,0,.38C29.32,47.85,30.16,47.89,30.58,47.69Z" transform="translate(0 0)"/><path d="M29.27,91.51v.1c.18,0,.11.19.33.19s.25-.46-.16-.47C29.4,91.4,29.27,91.42,29.27,91.51Z" transform="translate(0 0)"/><path d="M39.89,120.74h-.16a.42.42,0,0,0-.16.47C39.9,121.19,40.49,120.45,39.89,120.74Z" transform="translate(0 0)"/><path d="M43.83,122.62c.46.22.61.06,1.15.28a2.05,2.05,0,0,1,1.63-.19A4.21,4.21,0,0,0,43.83,122.62Z" transform="translate(0 0)"/><path d="M13.23,102c.57,0,.76-.19.66-.57C13.19,101.32,13.19,101.64,13.23,102Z" transform="translate(0 0)"/><path d="M12.91,100.66c.4.24.35-.2,1-.09-.12-.29.28-.28.16-.57-.34-.06-.73-.25-1-.09v.28C13.14,100.41,12.77,100.39,12.91,100.66Z" transform="translate(0 0)"/><path d="M15.84,114.52c.26,0,.28-.09.49-.09.12-.29-.28-.27-.16-.57C15.95,113.35,16.05,114.42,15.84,114.52Z" transform="translate(0 0)"/><path d="M147.21,50c.32,0,.32-.13.49-.19.12.29-.28.28-.16.57.61-.14.94.1,1.15-.19-.27-.12.46-.89-.82-1C147.91,49.62,147.35,49.56,147.21,50Z" transform="translate(0 0)"/><path d="M60.17,33.93c.1.19.25.35.82.28.31-.43-.65-.13-.49-.47.09,0,.19-.08,0-.09,0,.1-.18.15-.33.19-.26-.55-.1-.91,0-1.6A1.5,1.5,0,0,0,60,34.5C60.1,34.33,59.81,33.94,60.17,33.93Z" transform="translate(0 0)"/><path d="M60,31.48c.17-.1.34-.67,0-.75C60.2,31,59.51,31.31,60,31.48Z" transform="translate(0 0)"/><path d="M56.08,69.75v-.19c0-.11,0-.17-.16-.19v.09c0,.47-.24.69.16,1Z" transform="translate(0 0)"/><path d="M55,120.17c.07.32,0,.54-.65.47-.07.29.35.3.82.28C55.16,120.6,55.47,120.33,55,120.17Z" transform="translate(0 0)"/><path d="M57.08,71.16A3.46,3.46,0,0,0,58.22,71C57.85,71,56.95,70.8,57.08,71.16Z" transform="translate(0 0)"/><path d="M58.37,82.94c1.13.06.13-.51.65-.75v-.09c-.28,0-.31.07-.33.19C58.75,82.6,58.73,82.86,58.37,82.94Z" transform="translate(0 0)"/><path d="M33.83,74.37V73.7c-.29.21-.14.67-.33.94C33.74,74.63,33.56,74.37,33.83,74.37Z" transform="translate(0 0)"/><path d="M34.17,77.38V77h-.49C33.64,77.25,33.74,77.41,34.17,77.38Z" transform="translate(0 0)"/><path d="M38.74,64.09c0,.42-1.77-.14-2,.28.33.44.83-.27,1,.19.43-.13,1-.19,1.47-.28C39.38,64.09,38.81,63.86,38.74,64.09Z" transform="translate(0 0)"/><path d="M41,62.77c.29-.14,1-.65.33-.76C41.68,62.46,40.6,62.57,41,62.77Z" transform="translate(0 0)"/><path d="M58.21,64.09h.16c-.11-.4-1.49-.25-1.8,0Z" transform="translate(0 0)"/><path d="M33.83,75.78c-.16-.67-.61.55-.82.75v.09c.72-.26.32.7.65.57,0-.46-.09-1,.16-1.32Z" transform="translate(0 0)"/><path d="M66.57,71.16c.56-.16,1.21-.06,1.31-.28-.07-.21-.8,0-1.14-.09A.38.38,0,0,1,66.57,71.16Z" transform="translate(0 0)"/><path d="M67.71,70.59c.54.15,1.18,0,.82-.28C68.6,70.55,67.25,70.44,67.71,70.59Z" transform="translate(0 0)"/><path d="M78.67,76.62a3.46,3.46,0,0,0-1.15.19C77.9,76.74,78.8,77,78.67,76.62Z" transform="translate(0 0)"/><path d="M71.63,8.77V9c.37,0,.61,0,.65-.19A1.65,1.65,0,0,0,71.63,8.77Z" transform="translate(0 0)"/><path d="M47.59,71.06h-.16a1,1,0,0,1-.82,0c0,.29,1.27.27,1.31.19-.13,0-.19-.08-.16-.19Z" transform="translate(0 0)"/><path d="M56.26,101.7c-.24.29,0,.36.33.57C56.59,102,56.93,101.75,56.26,101.7Z" transform="translate(0 0)"/><path d="M57.41,119.88c-.25.22-.4.14-.82.1-.11.23.7.4.82.19C56.83,120.14,58.1,120,57.41,119.88Z" transform="translate(0 0)"/></svg>